<svg xmlns="http://www.w3.org/2000/svg" viewBox="0 0 316.68 74.64"><defs><style>.cls-1{fill:#ec4863;}.cls-2{font-size:31.46px;fill:#fff;font-family:HighTowerText-Reg, High Tower Text;}</style></defs><title>Asset 3</title><g id="Layer_2" data-name="Layer 2"><g id="Elements"><path class="cls-1" d="M316.57,52.77c-6.49,0-14.15.43-21.34.43,0-.79,1.6-1.84,2.18-2.27.89-.65,2.38-.49,3.48-2.41.33-.6-.95-1.4,0-2.47.56-.63,1.51-.76,1.95-1.12s6-3.49,1.53-3.49c.3-1.63,5.86-.74,5.67-2.28-.07-.5-14.66-.77-16.12-.77,0-1.79,3.88,0,4.36-.87.62-1.16-5.84-.85-6.53-1.45.63-1.86.67.19-.47-1.88,3.86-3.63,9-1.67,13.51-4.27-1.39-1.22-6.22.53-8,.63-3.2.2-10.28,1.09-12.45-1.08,1.08-1.13,7.53-.62,7.76-1.24.55-1.45-7.89.32-8.2-1.6.68.21,1.1-1.33.62-1.74.59.51-3.5,0-3.23-.87.7.31,1.14.17,1.32-.43,0-.91-4.72-1.31-5.24-1.31,0-2.26,9.82-3.52,11.28-3.71,2.68-.34,6.21-.92,8.75-1.08,1.22-.08,3.05-.39,3.92-.44,1.61-.09,3,.15,4.41-.34.75-.27-.15-1-.49-1,0-.52,3.77-2.45,4.36-2.62,1.85-.53,5.1.4,6.48-1.06-.73-.83-8.24-.63-9.43-.68-3.27-.15-6.19-.06-9.19-.44-5.64-.71-11-.88-16.61-1.74-9.29-1.42-18.75-3.41-28.53-4.35C241.25,3.79,229.85,3,218.68,2.35,206.23,1.64,192.94.24,180.14.07c-18-.24-35.19.22-52.61.43C116.34.63,103.38.36,92.25,1.81,70.93,4.59,48.51,4.07,27.13,7.9c-3.27.59-20.72,4.74-14,9.15,1,.66,3,.5,3.73,1.09.52.44,2.07,3.28,2,4.13-.16,1.41.75.68-.51,2.19-.33.39-2.91-.45-3.2,0-1.12,1.74,3.44.87,4.36.87,0,2.05-4.48.45-5.16,1.89-.09.19,9.85-.88,8.91,1.85-.55,1.6-4.55-.95-5.42.76-.13.26,4.34.84,4.71.72,0,.33-8.21.88-9.14.88-.19.62,1.34,1.11,1.75,1.45-.23,2.43-6.25-.85-4.27,2.9,1.36,2.57,4.57,1.15,6.44,2.41-1.48,2-1.42.56-1.13,3.25.13,1.25,2.61.29.41,2.19-1.05.9-5.67.9-7.34.86-2.65-.06-5.5-.75-7.63.64A9.55,9.55,0,0,0,.14,46.68c-.26.5-.18,3,.43,3.47.84.65,2.56-.13,3.27.44,1.71,1.4-.13,2.62.67,3.92.41.68,2.73,2.84,3.25,3.48.39.49,1.43,1.43,2,2.22.75,1.09.47,1.86,1.43,2.71,1.7,1.52,4.31,1.69,6.19,3.15,1.41,1.1,1.74,1.84,3.42,3,2.1,1.49-.63,1.51,3.37,1.89,0,0,.62-.81.73-.8,1.77.16,10.52,1.75,10.33,2,.49.66,1.73,0,1.73-.65,2.14,0,4.08,1.06,6.31,1.31,1,.1,1.73-.28,3.08.44.61-.7,4.33.41,5.41.42,2.11,0,8.12,1.13,9.74-.36-2.4,2.21,5.89,1,5.52,1,1.74-.11,8-.75,8.47.24,1.15-1.1,8.65-1.1,10.48-1.32,2.82-.34,5.69-.1,7.85-.44,3.78-.59,7.28,0,10.44.44,2,.26,6.89.27,8.34-.51,2-1.11.09-.18,2.33.07a22.67,22.67,0,0,0,4.92-.08c6-.3,13-.31,18.39-.35,6.75-.05,14.91.48,21.78.43a82.71,82.71,0,0,1,8.91,0c3.29.33,6.79-.48,9.91-.43,17.08.24,34.58.28,53.36-.44,8.28-.32,19.64,0,27.61,0,2.7,0,25.87.81,25.87,0,0-.36-5.83-.89-6.18-.87a19.28,19.28,0,0,1-4.45.07,39.21,39.21,0,0,0-5.51-.29,25.67,25.67,0,0,1-3.67.22,19.83,19.83,0,0,1-2.13-.8c-.77-.16-.88,1-1.6.8a.68.68,0,0,0-.43-.87c.32-1.65,18.78-.46,20-.44,1,0,2-.37,3.22-.38,2.05,0,2.85,0,5.08.16a125.63,125.63,0,0,0,14.12-.21c.75,0,14.85-3.61,12.2-5.66h-3.26C313.08,62.45,316.89,52.77,316.57,52.77Z" transform="translate(0 0)"/><path class="cls-1" d="M288.26,71.93c-1.77,0-2,.87.43.87a.59.59,0,0,0-.43-.87C288.11,71.93,288.49,71.88,288.26,71.93Z" transform="translate(0 0)"/><path class="cls-1" d="M292.4,72.36c-.37-.3-2.52-1-2.77-.27C289.15,73.44,293.75,73.46,292.4,72.36Z" transform="translate(0 0)"/><path class="cls-1" d="M293.7,71.5c-.95,0-1.09,0-1.09.87.3,0,1.64-.32,1.09-.87C293.45,71.5,293.77,71.56,293.7,71.5Z" transform="translate(0 0)"/><path class="cls-1" d="M298.94,71.93c-.72-.68-3.28-1-3.28.44,0,0,5.87,1,5.15-.29a2.5,2.5,0,0,0-1.87-.15C298.79,71.79,299.45,71.93,298.94,71.93Z" transform="translate(0 0)"/><path class="cls-1" d="M11.6,32.15Z" transform="translate(0 0)"/><path class="cls-1" d="M184.09,2.65Z" transform="translate(0 0)"/><path class="cls-1" d="M295.15,66.68s0,0,0,0Z" transform="translate(0 0)"/><path class="cls-1" d="M114.83,70.59s0,0,0,0Z" transform="translate(0 0)"/><path class="cls-1" d="M247.24,68Z" transform="translate(0 0)"/><text class="cls-2" transform="translate(86.34 48.34)">About Me</text></g></g></svg>