<?xml version="1.0" encoding="UTF-8"?>
<svg width="1424px" height="197px" viewBox="0 0 1424 197" version="1.1" xmlns="http://www.w3.org/2000/svg" xmlns:xlink="http://www.w3.org/1999/xlink">
    <!-- Generator: Sketch 54.1 (76490) - https://sketchapp.com -->
    <title>Bkg-spheres</title>
    <desc>Created with Sketch.</desc>
    <defs>
        <linearGradient x1="100%" y1="50%" x2="0.0513347023%" y2="50%" id="linearGradient-1">
            <stop stop-color="#6EE8FC" offset="0%"></stop>
            <stop stop-color="#6AE2FB" offset="16%"></stop>
            <stop stop-color="#5ED1F7" offset="37%"></stop>
            <stop stop-color="#4BB5F1" offset="61%"></stop>
            <stop stop-color="#308EE8" offset="87%"></stop>
            <stop stop-color="#267FE5" offset="96%"></stop>
        </linearGradient>
        <linearGradient x1="85.3303754%" y1="14.6115372%" x2="14.6196973%" y2="85.3222153%" id="linearGradient-2">
            <stop stop-color="#D4088C" offset="0%"></stop>
            <stop stop-color="#CC088C" offset="4%"></stop>
            <stop stop-color="#85078A" offset="46%"></stop>
            <stop stop-color="#590689" offset="76%"></stop>
            <stop stop-color="#480689" offset="91%"></stop>
        </linearGradient>
    </defs>
    <g id="Footer-Blog" stroke="none" stroke-width="1" fill="none" fill-rule="evenodd">
        <g id="Desktop-HD-Copy" transform="translate(-9.000000, -3.000000)" fill-rule="nonzero">
            <g id="Bkg-spheres" transform="translate(9.000000, 3.000000)">
                <g id="liitle-graphics-copy-5" opacity="0.703264509" transform="translate(708.500000, 166.500000) rotate(-180.000000) translate(-708.500000, -166.500000) translate(586.000000, 138.000000)">
                    <circle id="Oval" fill="url(#linearGradient-1)" cx="88.5" cy="9.5" r="5.5"></circle>
                    <circle id="Oval" fill="#D4088C" opacity="0.8" style="mix-blend-mode: lighten;" cx="127.5" cy="10.5" r="1.5"></circle>
                    <circle id="Oval" fill="#6EE8FC" style="mix-blend-mode: lighten;" cx="33.5" cy="1.5" r="1.5"></circle>
                    <path d="M180,7.5 C180,8.32842712 179.328427,9 178.5,9 C177.671573,9 177,8.32842712 177,7.5 C177,6.67157288 177.671573,6 178.5,6 C179.328427,6 180,6.67157288 180,7.5 L180,7.5 Z" id="Path" fill="#6EE8FC" style="mix-blend-mode: lighten;"></path>
                    <path d="M57.9999674,9.00001628 C57.9999674,9.55229204 57.5522595,10 56.9999837,10 C56.447708,10 56,9.55229204 56,9.00001628 C56,8.44774053 56.447708,8.00003257 56.9999837,8.00003257 C57.26585,7.9978797 57.5214526,8.10254335 57.7094546,8.29054539 C57.8974566,8.47854742 58.0021203,8.73414997 57.9999674,9.00001628 L57.9999674,9.00001628 Z" id="Path" fill="#6EE8FC" style="mix-blend-mode: lighten;"></path>
                    <path d="M212.999977,12.9932291 C213.002714,13.3982892 212.760818,13.7649889 212.387375,13.9218988 C212.013931,14.0788088 211.582716,13.99493 211.29532,13.7094753 C211.007923,13.4240206 210.921123,12.993384 211.075498,12.6188847 C211.229872,12.2443855 211.594923,12.0000092 212,12 C212.549641,11.9999875 212.996263,12.4435927 212.999977,12.9932291 L212.999977,12.9932291 Z" id="Path" fill="#D4088C" style="mix-blend-mode: lighten;"></path>
                    <polygon id="Path" fill="#6EE1F8" points="100.032641 57 99 53.0894207 102.68546 52 103 53.209068 100.459941 53.9647355 101.172107 56.6599496"></polygon>
                    <path d="M172.499978,15 C171.120636,14.9999878 170.001926,13.8828272 170.000002,12.5034868 C169.998079,11.1241464 171.113668,10.0038696 172.493005,10.00001 C173.872341,9.99615035 174.994182,11.1101663 174.999978,12.4894959 C175.002771,13.1543552 174.740613,13.7929419 174.271469,14.2640571 C173.802325,14.7351723 173.164843,15.0000059 172.499978,15 L172.499978,15 Z M172.499978,11.0504203 C171.912725,11.0504358 171.383503,11.4047619 171.159765,11.9477234 C170.936027,12.490685 171.061985,13.1149905 171.478742,13.5287283 C171.8955,13.942466 172.520705,14.0638797 173.062025,13.8361989 C173.603345,13.608518 173.953813,13.0767333 173.949558,12.4894959 C173.940949,11.6942165 173.295299,11.053245 172.499978,11.0504203 L172.499978,11.0504203 Z" id="Shape" fill="#6EE1F8"></path>
                    <polygon id="Rectangle" fill="#D4088C" transform="translate(242.711852, 41.158189) rotate(-45.010000) translate(-242.711852, -41.158189) " points="242.133061 38.7758719 243.298478 38.7739564 243.290644 43.5405067 242.125227 43.5424222"></polygon>
                    <path d="M54.999931,26.9797221 C55.0081419,28.1948884 54.2824553,29.2949747 53.1621241,29.7656991 C52.0417929,30.2364235 50.7481483,29.9847903 49.8859593,29.128436 C49.0237703,28.2720818 48.7633698,26.9801867 49.226493,25.8567019 C49.6896163,24.7332171 50.7847692,24.0000968 51.9999763,24.000069 C52.793744,23.9946692 53.5568563,24.3062106 54.1200473,24.8655903 C54.6832383,25.4249699 54.9999494,26.1859444 54.999931,26.9797221 L54.999931,26.9797221 Z" id="Path" fill="#D4088C" style="mix-blend-mode: lighten;"></path>
                    <path d="M2.99996552,4.48986103 C3.00407095,5.0974442 2.64122764,5.64748736 2.08106204,5.88284957 C1.52089644,6.11821177 0.87407417,5.99239516 0.442979661,5.56421802 C0.0118851522,5.13604088 -0.1183151,4.49009337 0.113246519,3.92835096 C0.344808137,3.36660855 0.892384598,3.00004839 1.49998813,3.00003452 C1.896872,2.9973346 2.27842814,3.15310529 2.56002364,3.43279513 C2.84161914,3.71248497 2.99997471,4.09297221 2.99996552,4.48986103 L2.99996552,4.48986103 Z" id="Path-Copy" fill="#D4088C" style="mix-blend-mode: lighten;"></path>
                </g>
                <g id="liitle-graphics-copy-6" opacity="0.604096912" transform="translate(348.000000, 175.000000) rotate(-180.000000) translate(-348.000000, -175.000000) translate(183.000000, 160.000000)">
                    <circle id="Oval" fill="#D4088C" opacity="0.8" style="mix-blend-mode: lighten;" cx="127.5" cy="21.5" r="1.5"></circle>
                    <circle id="Oval" fill="#6EE8FC" style="mix-blend-mode: lighten;" cx="33.5" cy="12.5" r="1.5"></circle>
                    <path d="M180,5.5 C180,6.32842712 179.328427,7 178.5,7 C177.671573,7 177,6.32842712 177,5.5 C177,4.67157288 177.671573,4 178.5,4 C179.328427,4 180,4.67157288 180,5.5 L180,5.5 Z" id="Path" fill="#6EE8FC" style="mix-blend-mode: lighten;"></path>
                    <path d="M57.9999674,20.0000163 C57.9999674,20.552292 57.5522595,21 56.9999837,21 C56.447708,21 56,20.552292 56,20.0000163 C56,19.4477405 56.447708,19.0000326 56.9999837,19.0000326 C57.26585,18.9978797 57.5214526,19.1025434 57.7094546,19.2905454 C57.8974566,19.4785474 58.0021203,19.73415 57.9999674,20.0000163 L57.9999674,20.0000163 Z" id="Path" fill="#6EE8FC" style="mix-blend-mode: lighten;"></path>
                    <path d="M247.999977,4.9932291 C248.002714,5.39828921 247.760818,5.76498887 247.387375,5.92189881 C247.013931,6.07880875 246.582716,5.99493005 246.29532,5.70947534 C246.007923,5.42402063 245.921123,4.99338399 246.075498,4.61888475 C246.229872,4.2443855 246.594923,4.00000925 247,4 C247.549641,3.99998745 247.996263,4.44359268 247.999977,4.9932291 L247.999977,4.9932291 Z" id="Path" fill="#D4088C" style="mix-blend-mode: lighten;"></path>
                    <polygon id="Path" fill="#6EE1F8" points="241.032641 24 240 20.0894207 243.68546 19 244 20.209068 241.459941 20.9647355 242.172107 23.6599496"></polygon>
                    <path d="M172.499978,13 C171.120636,12.9999878 170.001926,11.8828272 170.000002,10.5034868 C169.998079,9.12414639 171.113668,8.00386965 172.493005,8.00001 C173.872341,7.99615035 174.994182,9.11016632 174.999978,10.4894959 C175.002771,11.1543552 174.740613,11.7929419 174.271469,12.2640571 C173.802325,12.7351723 173.164843,13.0000059 172.499978,13 L172.499978,13 Z M172.499978,9.05042034 C171.912725,9.05043575 171.383503,9.40476188 171.159765,9.94772342 C170.936027,10.490685 171.061985,11.1149905 171.478742,11.5287283 C171.8955,11.942466 172.520705,12.0638797 173.062025,11.8361989 C173.603345,11.608518 173.953813,11.0767333 173.949558,10.4894959 C173.940949,9.69421648 173.295299,9.05324496 172.499978,9.05042034 L172.499978,9.05042034 Z" id="Shape" fill="#6EE1F8"></path>
                    <polygon id="Rectangle" fill="#D4088C" transform="translate(327.100936, 2.100492) rotate(-45.010000) translate(-327.100936, -2.100492) " points="326.522145 -0.281825071 327.687562 -0.283740541 327.679727 4.48280981 326.51431 4.48472528"></polygon>
                    <path d="M81.1621241,29.7656991 C80.0417929,30.2364235 78.7481483,29.9847903 77.8859593,29.128436 C77.0237703,28.2720818 76.7633698,26.9801867 77.226493,25.8567019 C77.6896163,24.7332171 78.7847692,24.0000968 79.9999763,24.000069 C80.793744,23.9946692 81.5568563,24.3062106 82.1200473,24.8655903 C82.6832383,25.4249699 82.9999494,26.1859444 82.999931,26.9797221 C83.0081419,28.1948884 82.2824553,29.2949747 81.1621241,29.7656991 Z" id="Path" fill="#D4088C" style="mix-blend-mode: lighten;"></path>
                    <path d="M2.99996552,15.489861 C3.00407095,16.0974442 2.64122764,16.6474874 2.08106204,16.8828496 C1.52089644,17.1182118 0.87407417,16.9923952 0.442979661,16.564218 C0.0118851522,16.1360409 -0.1183151,15.4900934 0.113246519,14.928351 C0.344808137,14.3666086 0.892384598,14.0000484 1.49998813,14.0000345 C1.896872,13.9973346 2.27842814,14.1531053 2.56002364,14.4327951 C2.84161914,14.712485 2.99997471,15.0929722 2.99996552,15.489861 L2.99996552,15.489861 Z" id="Path-Copy" fill="#D4088C" style="mix-blend-mode: lighten;"></path>
                </g>
                <g id="liitle-graphics-copy-9" opacity="0.4398484" transform="translate(1111.000000, 13.500000) rotate(-180.000000) translate(-1111.000000, -13.500000) translate(990.000000, 2.000000)">
                    <circle id="Oval" fill="#D4088C" opacity="0.8" style="mix-blend-mode: lighten;" cx="93" cy="17" r="1"></circle>
                    <circle id="Oval" fill="#6EE8FC" style="mix-blend-mode: lighten;" cx="25" cy="10" r="1"></circle>
                    <path d="M132,5 C132,5.55228475 131.552285,6 131,6 C130.447715,6 130,5.55228475 130,5 C130,4.44771525 130.447715,4 131,4 C131.552285,4 132,4.44771525 132,5 L132,5 Z" id="Path" fill="#6EE8FC" style="mix-blend-mode: lighten;"></path>
                    <path d="M41.9999837,15.5000081 C41.9999837,15.776146 41.7761297,16 41.5,16 C41.223854,16 41,15.776146 41,15.5 C41,15.2238703 41.223854,15.0000163 41.4999919,15.0000163 C41.632925,14.9989398 41.7607263,15.0512717 41.8547273,15.1452727 C41.9487283,15.2392737 42.0010602,15.367075 41.9999837,15.5000081 L41.9999837,15.5000081 Z" id="Path" fill="#6EE8FC" style="mix-blend-mode: lighten;"></path>
                    <path d="M181.999989,4.49661455 C182.001357,4.69914461 181.880409,4.88249444 181.693687,4.96094941 C181.506965,5.03940438 181.291358,4.99746502 181.14766,4.85473767 C181.003962,4.71201031 180.960562,4.496692 181.037749,4.30944237 C181.114936,4.12219275 181.297462,4.00000462 181.5,4 C181.77482,3.99999373 181.998132,4.22179634 181.999989,4.49661455 L181.999989,4.49661455 Z" id="Path" fill="#D4088C" style="mix-blend-mode: lighten;"></path>
                    <polygon id="Path" fill="#6EE1F8" points="176.774481 19 176 15.8715365 178.764095 15 179 15.9672544 177.094955 16.5717884 177.62908 18.7279597"></polygon>
                    <path d="M125.999982,11 C124.896509,10.9999903 124.001541,10.1062618 124.000002,9.00278944 C123.998463,7.89931711 124.890935,7.00309572 125.994404,7.000008 C127.097873,6.99692028 127.995346,7.88813306 127.999982,8.99159672 C128.002217,9.52348418 127.79249,10.0343535 127.417175,10.4112457 C127.04186,10.7881379 126.531875,11.0000047 125.999982,11 L125.999982,11 Z M125.999982,7.84033627 C125.53018,7.8403486 125.106803,8.1238095 124.927812,8.55817874 C124.748822,8.99254797 124.849588,9.49199244 125.182994,9.82298263 C125.5164,10.1539728 126.016564,10.2511038 126.44962,10.0689591 C126.882676,9.88681443 127.163051,9.46138668 127.159646,8.99159672 C127.152759,8.35537319 126.636239,7.84259597 125.999982,7.84033627 L125.999982,7.84033627 Z" id="Shape" fill="#6EE1F8"></path>
                    <polygon id="Rectangle" fill="#D4088C" transform="translate(239.874020, 2.540361) rotate(-45.010000) translate(-239.874020, -2.540361) " points="239.449573 0.793328281 240.304212 0.791923603 240.298467 4.28739386 239.443828 4.28879854"></polygon>
                    <path d="M59.7747494,22.8437994 C59.0278619,23.1576157 58.1654322,22.9898602 57.5906395,22.4189574 C57.0158469,21.8480545 56.8422465,20.9867912 57.1509954,20.2378013 C57.4597442,19.4888114 58.1898461,19.0000645 58.9999842,19.000046 C59.5291627,18.9964461 60.0379042,19.2041404 60.4133649,19.5770602 C60.7888255,19.94998 60.9999663,20.4572963 60.999954,20.9864814 C61.0054279,21.7965923 60.5216369,22.5299831 59.7747494,22.8437994 Z" id="Path" fill="#D4088C" style="mix-blend-mode: lighten;"></path>
                    <path d="M1.99997701,11.9932407 C2.00271397,12.3982961 1.76081843,12.7649916 1.38737469,12.9218997 C1.01393096,13.0788078 0.582716114,12.9949301 0.295319774,12.7094787 C0.00792343482,12.4240273 -0.0788767333,11.9933956 0.0754976791,11.6189006 C0.229872091,11.2444057 0.594923066,11.0000323 0.999992086,11.000023 C1.26458134,10.9982231 1.5189521,11.1020702 1.70668243,11.2885301 C1.89441276,11.47499 1.99998314,11.7286481 1.99997701,11.9932407 L1.99997701,11.9932407 Z" id="Path-Copy" fill="#D4088C" style="mix-blend-mode: lighten;"></path>
                </g>
                <g id="liitle-graphics-copy-10" opacity="0.604096912" transform="translate(319.000000, 9.500000) rotate(-180.000000) translate(-319.000000, -9.500000) translate(219.000000, 0.000000)">
                    <circle id="Oval" fill="#D4088C" opacity="0.8" style="mix-blend-mode: lighten;" cx="77" cy="14" r="1"></circle>
                    <circle id="Oval" fill="#6EE8FC" style="mix-blend-mode: lighten;" cx="21" cy="8" r="1"></circle>
                    <path d="M109,4 C109,4.55228475 108.552285,5 108,5 C107.447715,5 107,4.55228475 107,4 C107,3.44771525 107.447715,3 108,3 C108.552285,3 109,3.44771525 109,4 L109,4 Z" id="Path" fill="#6EE8FC" style="mix-blend-mode: lighten;"></path>
                    <path d="M34.9999837,12.5000081 C34.9999837,12.776146 34.7761297,13 34.5,13 C34.223854,13 34,12.776146 34,12.5 C34,12.2238703 34.223854,12.0000163 34.4999919,12.0000163 C34.632925,11.9989398 34.7607263,12.0512717 34.8547273,12.1452727 C34.9487283,12.2392737 35.0010602,12.367075 34.9999837,12.5000081 L34.9999837,12.5000081 Z" id="Path" fill="#6EE8FC" style="mix-blend-mode: lighten;"></path>
                    <path d="M149.999989,3.49661455 C150.001357,3.69914461 149.880409,3.88249444 149.693687,3.96094941 C149.506965,4.03940438 149.291358,3.99746502 149.14766,3.85473767 C149.003962,3.71201031 148.960562,3.496692 149.037749,3.30944237 C149.114936,3.12219275 149.297462,3.00000462 149.5,3 C149.77482,2.99999373 149.998132,3.22179634 149.999989,3.49661455 L149.999989,3.49661455 Z" id="Path" fill="#D4088C" style="mix-blend-mode: lighten;"></path>
                    <polygon id="Path" fill="#6EE1F8" points="146.51632 16 146 13.6536524 147.84273 13 148 13.7254408 146.72997 14.1788413 147.086053 15.7959698"></polygon>
                    <path d="M104.499987,9 C103.672382,8.99999269 103.001156,8.32969633 103.000001,7.50209208 C102.998847,6.67448783 103.668201,6.00232179 104.495803,6.000006 C105.323405,5.99769021 105.996509,6.66609979 105.999987,7.49369754 C106.001663,7.89261313 105.844368,8.27576511 105.562881,8.55843426 C105.281395,8.84110341 104.898906,9.00000352 104.499987,9 L104.499987,9 Z M104.499987,6.6302522 C104.147635,6.63026145 103.830102,6.84285713 103.695859,7.16863405 C103.561616,7.49441098 103.637191,7.86899433 103.887245,8.11723697 C104.1373,8.36547962 104.512423,8.43832782 104.837215,8.30171932 C105.162007,8.16511082 105.372288,7.84604001 105.369735,7.49369754 C105.364569,7.01652989 104.977179,6.63194697 104.499987,6.6302522 L104.499987,6.6302522 Z" id="Shape" fill="#6EE1F8"></path>
                    <polygon id="Rectangle" fill="#D4088C" transform="translate(198.242992, 2.098559) rotate(-45.010000) translate(-198.242992, -2.098559) " points="197.891971 0.654967903 198.598131 0.653960811 198.594012 3.54215039 197.887852 3.54315748"></polygon>
                    <path d="M49.081062,18.8828496 C48.5208964,19.1182118 47.8740742,18.9923952 47.4429797,18.564218 C47.0118852,18.1360409 46.8816849,17.4900934 47.1132465,16.928351 C47.3448081,16.3666086 47.8923846,16.0000484 48.4999881,16.0000345 C48.896872,15.9973346 49.2784281,16.1531053 49.5600236,16.4327951 C49.8416191,16.712485 49.9999747,17.0929722 49.9999655,17.489861 C50.004071,18.0974442 49.6412276,18.6474874 49.081062,18.8828496 Z" id="Path" fill="#D4088C" style="mix-blend-mode: lighten;"></path>
                    <path d="M1.99997701,9.99324069 C2.00271397,10.3982961 1.76081843,10.7649916 1.38737469,10.9218997 C1.01393096,11.0788078 0.582716114,10.9949301 0.295319774,10.7094787 C0.00792343482,10.4240273 -0.0788767333,9.99339558 0.0754976791,9.61890064 C0.229872091,9.2444057 0.594923066,9.00003226 0.999992086,9.00002301 C1.26458134,8.99822306 1.5189521,9.10207019 1.70668243,9.28853009 C1.89441276,9.47498998 1.99998314,9.72864814 1.99997701,9.99324069 L1.99997701,9.99324069 Z" id="Path-Copy" fill="#D4088C" style="mix-blend-mode: lighten;"></path>
                </g>
                <g id="liitle-graphics-copy-7" opacity="0.604096912" transform="translate(546.000000, 2.000000)">
                    <circle id="Oval" fill="#D4088C" opacity="0.8" style="mix-blend-mode: lighten;" cx="127.5" cy="21.5" r="1.5"></circle>
                    <circle id="Oval" fill="#6EE8FC" style="mix-blend-mode: lighten;" cx="33.5" cy="12.5" r="1.5"></circle>
                    <path d="M180,5.5 C180,6.32842712 179.328427,7 178.5,7 C177.671573,7 177,6.32842712 177,5.5 C177,4.67157288 177.671573,4 178.5,4 C179.328427,4 180,4.67157288 180,5.5 L180,5.5 Z" id="Path" fill="#6EE8FC" style="mix-blend-mode: lighten;"></path>
                    <path d="M57.9999674,20.0000163 C57.9999674,20.552292 57.5522595,21 56.9999837,21 C56.447708,21 56,20.552292 56,20.0000163 C56,19.4477405 56.447708,19.0000326 56.9999837,19.0000326 C57.26585,18.9978797 57.5214526,19.1025434 57.7094546,19.2905454 C57.8974566,19.4785474 58.0021203,19.73415 57.9999674,20.0000163 L57.9999674,20.0000163 Z" id="Path" fill="#6EE8FC" style="mix-blend-mode: lighten;"></path>
                    <path d="M247.999977,4.9932291 C248.002714,5.39828921 247.760818,5.76498887 247.387375,5.92189881 C247.013931,6.07880875 246.582716,5.99493005 246.29532,5.70947534 C246.007923,5.42402063 245.921123,4.99338399 246.075498,4.61888475 C246.229872,4.2443855 246.594923,4.00000925 247,4 C247.549641,3.99998745 247.996263,4.44359268 247.999977,4.9932291 L247.999977,4.9932291 Z" id="Path" fill="#D4088C" style="mix-blend-mode: lighten;"></path>
                    <polygon id="Path" fill="#6EE1F8" points="241.032641 24 240 20.0894207 243.68546 19 244 20.209068 241.459941 20.9647355 242.172107 23.6599496"></polygon>
                    <path d="M172.499978,13 C171.120636,12.9999878 170.001926,11.8828272 170.000002,10.5034868 C169.998079,9.12414639 171.113668,8.00386965 172.493005,8.00001 C173.872341,7.99615035 174.994182,9.11016632 174.999978,10.4894959 C175.002771,11.1543552 174.740613,11.7929419 174.271469,12.2640571 C173.802325,12.7351723 173.164843,13.0000059 172.499978,13 L172.499978,13 Z M172.499978,9.05042034 C171.912725,9.05043575 171.383503,9.40476188 171.159765,9.94772342 C170.936027,10.490685 171.061985,11.1149905 171.478742,11.5287283 C171.8955,11.942466 172.520705,12.0638797 173.062025,11.8361989 C173.603345,11.608518 173.953813,11.0767333 173.949558,10.4894959 C173.940949,9.69421648 173.295299,9.05324496 172.499978,9.05042034 L172.499978,9.05042034 Z" id="Shape" fill="#6EE1F8"></path>
                    <polygon id="Rectangle" fill="#D4088C" transform="translate(327.100936, 2.100492) rotate(-45.010000) translate(-327.100936, -2.100492) " points="326.522145 -0.281825071 327.687562 -0.283740541 327.679727 4.48280981 326.51431 4.48472528"></polygon>
                    <path d="M81.1621241,29.7656991 C80.0417929,30.2364235 78.7481483,29.9847903 77.8859593,29.128436 C77.0237703,28.2720818 76.7633698,26.9801867 77.226493,25.8567019 C77.6896163,24.7332171 78.7847692,24.0000968 79.9999763,24.000069 C80.793744,23.9946692 81.5568563,24.3062106 82.1200473,24.8655903 C82.6832383,25.4249699 82.9999494,26.1859444 82.999931,26.9797221 C83.0081419,28.1948884 82.2824553,29.2949747 81.1621241,29.7656991 Z" id="Path" fill="#D4088C" style="mix-blend-mode: lighten;"></path>
                    <path d="M2.99996552,15.489861 C3.00407095,16.0974442 2.64122764,16.6474874 2.08106204,16.8828496 C1.52089644,17.1182118 0.87407417,16.9923952 0.442979661,16.564218 C0.0118851522,16.1360409 -0.1183151,15.4900934 0.113246519,14.928351 C0.344808137,14.3666086 0.892384598,14.0000484 1.49998813,14.0000345 C1.896872,13.9973346 2.27842814,14.1531053 2.56002364,14.4327951 C2.84161914,14.712485 2.99997471,15.0929722 2.99996552,15.489861 L2.99996552,15.489861 Z" id="Path-Copy" fill="#D4088C" style="mix-blend-mode: lighten;"></path>
                </g>
                <g id="liitle-graphics-copy-8" opacity="0.604096912" transform="translate(941.000000, 169.000000)">
                    <circle id="Oval" fill="#D4088C" opacity="0.8" style="mix-blend-mode: lighten;" cx="118.5" cy="20.5" r="1.5"></circle>
                    <circle id="Oval" fill="#6EE8FC" style="mix-blend-mode: lighten;" cx="31.5" cy="11.5" r="1.5"></circle>
                    <path d="M168,5.5 C168,6.32842712 167.328427,7 166.5,7 C165.671573,7 165,6.32842712 165,5.5 C165,4.67157288 165.671573,4 166.5,4 C167.328427,4 168,4.67157288 168,5.5 L168,5.5 Z" id="Path" fill="#6EE8FC" style="mix-blend-mode: lighten;"></path>
                    <path d="M53.9999674,19.0000163 C53.9999674,19.552292 53.5522595,20 52.9999837,20 C52.447708,20 52,19.552292 52,19.0000163 C52,18.4477405 52.447708,18.0000326 52.9999837,18.0000326 C53.26585,17.9978797 53.5214526,18.1025434 53.7094546,18.2905454 C53.8974566,18.4785474 54.0021203,18.73415 53.9999674,19.0000163 L53.9999674,19.0000163 Z" id="Path" fill="#6EE8FC" style="mix-blend-mode: lighten;"></path>
                    <path d="M231.999977,4.9932291 C232.002714,5.39828921 231.760818,5.76498887 231.387375,5.92189881 C231.013931,6.07880875 230.582716,5.99493005 230.29532,5.70947534 C230.007923,5.42402063 229.921123,4.99338399 230.075498,4.61888475 C230.229872,4.2443855 230.594923,4.00000925 231,4 C231.549641,3.99998745 231.996263,4.44359268 231.999977,4.9932291 L231.999977,4.9932291 Z" id="Path" fill="#D4088C" style="mix-blend-mode: lighten;"></path>
                    <polygon id="Path" fill="#6EE1F8" points="225.032641 23 224 19.0894207 227.68546 18 228 19.209068 225.459941 19.9647355 226.172107 22.6599496"></polygon>
                    <path d="M160.499978,12 C159.120636,11.9999878 158.001926,10.8828272 158.000002,9.5034868 C157.998079,8.12414639 159.113668,7.00386965 160.493005,7.00001 C161.872341,6.99615035 162.994182,8.11016632 162.999978,9.4894959 C163.002771,10.1543552 162.740613,10.7929419 162.271469,11.2640571 C161.802325,11.7351723 161.164843,12.0000059 160.499978,12 L160.499978,12 Z M160.499978,8.05042034 C159.912725,8.05043575 159.383503,8.40476188 159.159765,8.94772342 C158.936027,9.49068496 159.061985,10.1149905 159.478742,10.5287283 C159.8955,10.942466 160.520705,11.0638797 161.062025,10.8361989 C161.603345,10.608518 161.953813,10.0767333 161.949558,9.4894959 C161.940949,8.69421648 161.295299,8.05324496 160.499978,8.05042034 L160.499978,8.05042034 Z" id="Shape" fill="#6EE1F8"></path>
                    <polygon id="Rectangle" fill="#D4088C" transform="translate(305.294207, 1.960460) rotate(-45.010000) translate(-305.294207, -1.960460) " points="304.754002 -0.263036733 305.841724 -0.264824505 305.834412 4.18395582 304.74669 4.18574359"></polygon>
                    <path d="M76.1621241,27.7656991 C75.0417929,28.2364235 73.7481483,27.9847903 72.8859593,27.128436 C72.0237703,26.2720818 71.7633698,24.9801867 72.226493,23.8567019 C72.6896163,22.7332171 73.7847692,22.0000968 74.9999763,22.000069 C75.793744,21.9946692 76.5568563,22.3062106 77.1200473,22.8655903 C77.6832383,23.4249699 77.9999494,24.1859444 77.999931,24.9797221 C78.0081419,26.1948884 77.2824553,27.2949747 76.1621241,27.7656991 Z" id="Path" fill="#D4088C" style="mix-blend-mode: lighten;"></path>
                    <path d="M2.99996552,14.489861 C3.00407095,15.0974442 2.64122764,15.6474874 2.08106204,15.8828496 C1.52089644,16.1182118 0.87407417,15.9923952 0.442979661,15.564218 C0.0118851522,15.1360409 -0.1183151,14.4900934 0.113246519,13.928351 C0.344808137,13.3666086 0.892384598,13.0000484 1.49998813,13.0000345 C1.896872,12.9973346 2.27842814,13.1531053 2.56002364,13.4327951 C2.84161914,13.712485 2.99997471,14.0929722 2.99996552,14.489861 L2.99996552,14.489861 Z" id="Path-Copy" fill="#D4088C" style="mix-blend-mode: lighten;"></path>
                </g>
                <g id="liitle-graphics" opacity="0.754208519" transform="translate(5.000000, 10.000000)">
                    <circle id="Oval" fill="url(#linearGradient-1)" cx="19.5" cy="5.5" r="5.5"></circle>
                    <circle id="Oval" fill="#D4088C" opacity="0.8" style="mix-blend-mode: lighten;" cx="58.5" cy="6.5" r="1.5"></circle>
                    <circle id="Oval" fill="#6EE8FC" style="mix-blend-mode: lighten;" cx="1.5" cy="27.5" r="1.5"></circle>
                    <path d="M111,3.5 C111,4.32842712 110.328427,5 109.5,5 C108.671573,5 108,4.32842712 108,3.5 C108,2.67157288 108.671573,2 109.5,2 C110.328427,2 111,2.67157288 111,3.5 L111,3.5 Z" id="Path" fill="#6EE8FC" style="mix-blend-mode: lighten;"></path>
                    <path d="M7.99996743,20.0000163 C7.99996743,20.552292 7.55225947,21 6.99998372,21 C6.44770796,21 6,20.552292 6,20.0000163 C6,19.4477405 6.44770796,19.0000326 6.99998372,19.0000326 C7.26585003,18.9978797 7.52145258,19.1025434 7.70945461,19.2905454 C7.89745665,19.4785474 8.0021203,19.73415 7.99996743,20.0000163 L7.99996743,20.0000163 Z" id="Path" fill="#6EE8FC" style="mix-blend-mode: lighten;"></path>
                    <path d="M143.999977,8.9932291 C144.002714,9.39828921 143.760818,9.76498887 143.387375,9.92189881 C143.013931,10.0788088 142.582716,9.99493005 142.29532,9.70947534 C142.007923,9.42402063 141.921123,8.99338399 142.075498,8.61888475 C142.229872,8.2443855 142.594923,8.00000925 143,8 C143.549641,7.99998745 143.996263,8.44359268 143.999977,8.9932291 L143.999977,8.9932291 Z" id="Path" fill="#D4088C" style="mix-blend-mode: lighten;"></path>
                    <polygon id="Path" fill="#6EE1F8" points="24.0326409 82 23 78.0894207 26.6854599 77 27 78.209068 24.4599407 78.9647355 25.1721068 81.6599496"></polygon>
                    <path d="M103.499978,11 C102.120636,10.9999878 101.001926,9.88282722 101.000002,8.5034868 C100.998079,7.12414639 102.113668,6.00386965 103.493005,6.00001 C104.872341,5.99615035 105.994182,7.11016632 105.999978,8.4894959 C106.002771,9.15435522 105.740613,9.79294185 105.271469,10.2640571 C104.802325,10.7351723 104.164843,11.0000059 103.499978,11 L103.499978,11 Z M103.499978,7.05042034 C102.912725,7.05043575 102.383503,7.40476188 102.159765,7.94772342 C101.936027,8.49068496 102.061985,9.11499055 102.478742,9.52872829 C102.8955,9.94246603 103.520705,10.0638797 104.062025,9.83619887 C104.603345,9.60851804 104.953813,9.07673335 104.949558,8.4894959 C104.940949,7.69421648 104.295299,7.05324496 103.499978,7.05042034 L103.499978,7.05042034 Z" id="Shape" fill="#6EE1F8"></path>
                    <polygon id="Rectangle" fill="#D4088C" transform="translate(173.711852, 37.158189) rotate(-45.010000) translate(-173.711852, -37.158189) " points="173.133061 34.7758719 174.298478 34.7739564 174.290644 39.5405067 173.125227 39.5424222"></polygon>
                    <path d="M1.99997701,56.9932407 C2.00271397,57.3982961 1.76081843,57.7649916 1.38737469,57.9218997 C1.01393096,58.0788078 0.582716114,57.9949301 0.295319774,57.7094787 C0.00792343482,57.4240273 -0.0788767333,56.9933956 0.0754976791,56.6189006 C0.229872091,56.2444057 0.594923066,56.0000323 0.999992086,56.000023 C1.26458134,55.9982231 1.5189521,56.1020702 1.70668243,56.2885301 C1.89441276,56.47499 1.99998314,56.7286481 1.99997701,56.9932407 L1.99997701,56.9932407 Z" id="Path" fill="#D4088C" style="mix-blend-mode: lighten;"></path>
                </g>
                <g id="Group" opacity="0.65452939" transform="translate(1265.000000, 115.000000)">
                    <g id="liitle-graphics-copy-3" transform="translate(77.500000, 38.000000) rotate(180.000000) translate(-77.500000, -38.000000) ">
                        <circle id="Oval" fill="url(#linearGradient-1)" cx="18.2431119" cy="8.4818654" r="8"></circle>
                        <circle id="Oval" fill="#D4088C" opacity="0.8" style="mix-blend-mode: lighten;" cx="51.7292835" cy="9.56644487" r="1.5"></circle>
                        <circle id="Oval" fill="#6EE8FC" style="mix-blend-mode: lighten;" cx="2.40515067" cy="27.7083832" r="1.5"></circle>
                        <path d="M98.274787,7.35226007 C98.274787,8.1806872 97.6032141,8.85226007 96.774787,8.85226007 C95.9463598,8.85226007 95.274787,8.1806872 95.274787,7.35226007 C95.274787,6.52383295 95.9463598,5.85226007 96.774787,5.85226007 C97.6032141,5.85226007 98.274787,6.52383295 98.274787,7.35226007 L98.274787,7.35226007 Z" id="Path" fill="#6EE8FC" style="mix-blend-mode: lighten;"></path>
                        <path d="M8.01787337,21.2879253 C8.01787337,21.840201 7.57016541,22.287909 7.01788966,22.287909 C6.4656139,22.287909 6.01790594,21.840201 6.01790594,21.2879253 C6.01790594,20.7356495 6.4656139,20.2879415 7.01788966,20.2879415 C7.28375597,20.2857887 7.53935851,20.3904523 7.72736055,20.5784544 C7.91536259,20.7664564 8.02002624,21.0220589 8.01787337,21.2879253 L8.01787337,21.2879253 Z" id="Path" fill="#6EE8FC" style="mix-blend-mode: lighten;"></path>
                        <path d="M127.191735,12.3596498 C127.194472,12.7647099 126.952577,13.1314096 126.579133,13.2883195 C126.205689,13.4452294 125.774474,13.3613507 125.487078,13.075896 C125.199682,12.7904413 125.112881,12.3598047 125.267256,11.9853054 C125.42163,11.6108062 125.786681,11.3664299 126.191758,11.3664207 C126.741399,11.3664081 127.188021,11.8100134 127.191735,12.3596498 L127.191735,12.3596498 Z" id="Path" fill="#D4088C" style="mix-blend-mode: lighten;"></path>
                        <polygon id="Path" fill="#6EE1F8" points="22.1404326 75.57668 21.1077916 72.4482166 24.7932516 71.57668 25.1077916 72.5439344 22.5677323 73.1484684 23.2798984 75.3046397"></polygon>
                        <path d="M91.1970712,13.7555865 C90.0935977,13.7555767 89.1986298,12.8618482 89.1970908,11.7583759 C89.1955518,10.6549036 90.0880233,9.75868218 91.1914924,9.75559446 C92.2949616,9.75250674 93.1924347,10.6437195 93.1970711,11.7471832 C93.199306,12.2790706 92.9895793,12.7899399 92.614264,13.1668321 C92.2389488,13.5437243 91.7289633,13.7555912 91.1970712,13.7555865 L91.1970712,13.7555865 Z M91.1970712,10.5959227 C90.7272689,10.5959351 90.3038914,10.879396 90.124901,11.3137652 C89.9459106,11.7481344 90.0466765,12.2475789 90.3800827,12.5785691 C90.7134889,12.9095593 91.213653,13.0066902 91.646709,12.8245456 C92.079765,12.6424009 92.3601394,12.2169731 92.356735,11.7471832 C92.3498481,11.1109597 91.833328,10.5981824 91.1970712,10.5959227 L91.1970712,10.5959227 Z" id="Shape" fill="#6EE1F8"></path>
                        <polygon id="Rectangle" fill="#D4088C" transform="translate(152.997871, 36.626703) rotate(-45.010000) translate(-152.997871, -36.626703) " points="152.494177 34.539427 153.515697 34.5359715 153.501564 38.7139786 152.480044 38.7174341"></polygon>
                        <path d="M2.44271507,54.1888616 C2.44545202,54.593917 2.20355648,54.9606125 1.83011274,55.1175206 C1.45666901,55.2744287 1.02545416,55.190551 0.738057825,54.9050996 C0.450661486,54.6196481 0.363861317,54.1890165 0.51823573,53.8145215 C0.672610142,53.4400266 1.03766112,53.1956531 1.44273014,53.1956439 C1.70731939,53.1938439 1.96169015,53.2976911 2.14942048,53.484151 C2.33715081,53.6706109 2.44272119,53.924269 2.44271507,54.1888616 L2.44271507,54.1888616 Z" id="Path" fill="#D4088C" style="mix-blend-mode: lighten;"></path>
                    </g>
                    <circle id="Oval" fill="url(#linearGradient-2)" cx="137" cy="68" r="9"></circle>
                </g>
                <g id="Blog-Bkg-Graphic-Copy" opacity="0.689732143" transform="translate(1336.000000, 2.000000)">
                    <circle id="Oval" fill="#D4088C" opacity="0.8" style="mix-blend-mode: lighten;" cx="1" cy="5" r="1"></circle>
                    <path d="M31,1 C31,1.55228475 30.5522847,2 30,2 C29.4477153,2 29,1.55228475 29,1 C29,0.44771525 29.4477153,0 30,0 C30.5522847,0 31,0.44771525 31,1 L31,1 Z" id="Path" fill="#6EE8FC" style="mix-blend-mode: lighten;"></path>
                    <path d="M51.9999885,5.49661455 C52.001357,5.69914461 51.8804092,5.88249444 51.6936873,5.96094941 C51.5069655,6.03940438 51.2913581,5.99746502 51.1476599,5.85473767 C51.0039617,5.71201031 50.9605616,5.496692 51.0377488,5.30944237 C51.114936,5.12219275 51.2974615,5.00000462 51.5,5 C51.7748203,4.99999373 51.9981316,5.22179634 51.9999885,5.49661455 L51.9999885,5.49661455 Z" id="Path" fill="#D4088C" style="mix-blend-mode: lighten;"></path>
                    <g id="Group-4" transform="translate(75.000000, 5.000000)" fill="#6EE1F8">
                        <polygon id="Path" points="1.35211268 3.24765957 1.12676056 2.45824106 2.91288472 1.97150115 2.41210224 0.216783322 3.21752739 -2.48689958e-14 3.94366197 2.53595584"></polygon>
                        <polygon id="Path" points="0.221507084 5.95404255 6.21724894e-15 5.16561702 1.78459481 4.67948936 1.28724871 2.92697872 2.08968947 2.70638298 2.81690141 5.24323404"></polygon>
                    </g>
                    <polygon id="Path" fill="#6EE1F8" points="79.5163205 52 79 50.4357683 80.84273 50 81 50.4836272 79.7299703 50.7858942 80.0860534 51.8639798"></polygon>
                    <path d="M25.9999824,6 C24.8965089,5.99999026 24.001541,5.10626178 24.000002,4.00278944 C23.998463,2.89931711 24.8909345,2.00309572 25.9944036,2.000008 C27.0978728,1.99692028 27.9953459,2.88813306 27.9999823,3.99159672 C28.0022172,4.52348418 27.7924905,5.03435348 27.4171752,5.41124568 C27.04186,5.78813787 26.5318745,6.0000047 25.9999824,6 L25.9999824,6 Z M25.9999824,2.84033627 C25.5301801,2.8403486 25.1068026,3.1238095 24.9278122,3.55817874 C24.7488218,3.99254797 24.8495877,4.49199244 25.1829939,4.82298263 C25.5164001,5.15397283 26.0165642,5.25110376 26.4496202,5.0689591 C26.8826762,4.88681443 27.1630506,4.46138668 27.1596462,3.99159672 C27.1527593,3.35537319 26.6362392,2.84259597 25.9999824,2.84033627 L25.9999824,2.84033627 Z" id="Shape" fill="#6EE1F8"></path>
                    <g id="Group-2" transform="translate(84.000000, 23.000000)" fill="#D4088C">
                        <polygon id="Rectangle" transform="translate(1.938178, 1.951181) rotate(-45.010000) translate(-1.938178, -1.951181) " points="1.46229717 0.000544756678 2.41628718 -2.76223489e-13 2.41405913 3.90181759 1.46006911 3.90236235"></polygon>
                        <polygon id="Rectangle" transform="translate(1.951182, 1.968831) rotate(-45.000000) translate(-1.951182, -1.968831) " points="0.000544756711 1.49294993 3.90236313 1.49072187 3.90181837 2.4447117 8.84831321e-16 2.44693975"></polygon>
                    </g>
                </g>
                <g id="Blog-Bkg-Graphic-Copy-2" opacity="0.689732143" transform="translate(37.000000, 172.000000) rotate(-180.000000) translate(-37.000000, -172.000000) translate(0.000000, 150.000000)">
                    <circle id="Oval" fill="#D4088C" opacity="0.8" style="mix-blend-mode: lighten;" cx="1" cy="4" r="1"></circle>
                    <path d="M26,1 C26,1.55228475 25.5522847,2 25,2 C24.4477153,2 24,1.55228475 24,1 C24,0.44771525 24.4477153,0 25,0 C25.5522847,0 26,0.44771525 26,1 L26,1 Z" id="Path" fill="#6EE8FC" style="mix-blend-mode: lighten;"></path>
                    <path d="M43.9999885,4.49661455 C44.001357,4.69914461 43.8804092,4.88249444 43.6936873,4.96094941 C43.5069655,5.03940438 43.2913581,4.99746502 43.1476599,4.85473767 C43.0039617,4.71201031 42.9605616,4.496692 43.0377488,4.30944237 C43.114936,4.12219275 43.2974615,4.00000462 43.5,4 C43.7748203,3.99999373 43.9981316,4.22179634 43.9999885,4.49661455 L43.9999885,4.49661455 Z" id="Path" fill="#D4088C" style="mix-blend-mode: lighten;"></path>
                    <g id="Group-4" transform="translate(63.000000, 4.000000)" fill="#6EE1F8">
                        <polygon id="Path" points="1.08169014 2.70638298 0.901408451 2.04853422 2.33030777 1.64291763 1.92968179 0.180652768 2.57402191 -2.48689958e-14 3.15492958 2.11329653"></polygon>
                        <polygon id="Path" points="0.177205667 4.96170213 6.21724894e-15 4.30468085 1.42767585 3.89957447 1.02979897 2.43914894 1.67175158 2.25531915 2.25352113 4.3693617"></polygon>
                    </g>
                    <polygon id="Path" fill="#6EE1F8" points="66.5163205 44 66 42.4357683 67.84273 42 68 42.4836272 66.7299703 42.7858942 67.0860534 43.8639798"></polygon>
                    <path d="M21.4999868,5 C20.6723817,4.99999269 20.0011557,4.32969633 20.0000015,3.50209208 C19.9988472,2.67448783 20.6682009,2.00232179 21.4958027,2.000006 C22.3234046,1.99769021 22.9965094,2.66609979 22.9999867,3.49369754 C23.0016629,3.89261313 22.8443679,4.27576511 22.5628814,4.55843426 C22.281395,4.84110341 21.8989059,5.00000352 21.4999868,5 L21.4999868,5 Z M21.4999868,2.6302522 C21.147635,2.63026145 20.830102,2.84285713 20.6958592,3.16863405 C20.5616164,3.49441098 20.6371908,3.86899433 20.8872454,4.11723697 C21.1373,4.36547962 21.5124231,4.43832782 21.8372151,4.30171932 C22.1620072,4.16511082 22.3722879,3.84604001 22.3697347,3.49369754 C22.3645695,3.01652989 21.9771794,2.63194697 21.4999868,2.6302522 L21.4999868,2.6302522 Z" id="Shape" fill="#6EE1F8"></path>
                    <g id="Group-2" transform="translate(71.000000, 20.000000)" fill="#D4088C">
                        <polygon id="Rectangle" transform="translate(1.453634, 1.463386) rotate(-45.010000) translate(-1.453634, -1.463386) " points="1.09672288 0.000408567508 1.81221539 -3.1507114e-13 1.81054435 2.9263632 1.09505184 2.92677176"></polygon>
                        <polygon id="Rectangle" transform="translate(1.463386, 1.476623) rotate(-45.000000) translate(-1.463386, -1.476623) " points="0.000408567532 1.11971245 2.92677235 1.11804141 2.92636378 1.83353377 -1.41595909e-12 1.83520481"></polygon>
                    </g>
                </g>
                <g id="noun_finger-print_410657" transform="translate(785.000000, 116.000000)" fill="#D4088C">
                    <g id="Group">
                        <path d="M10.4352837,10.8518667 C10.269686,10.2769333 9.88753719,9.80173333 9.35927273,9.51573333 C8.84149862,9.2356 8.24429752,9.17033333 7.67856749,9.33313333 C6.50065014,9.67193333 5.81802755,10.9002667 6.15521763,12.0728667 C6.98095868,14.9431333 9.89877686,17.5486667 12.6435041,19.7186 C12.7131901,19.7736 12.7963636,19.8 12.8787879,19.8 C12.9881873,19.8 13.0960882,19.7538 13.1710193,19.6636 C13.3006501,19.5059333 13.2751736,19.2749333 13.1148209,19.1480667 C10.4615096,17.0507333 7.6455978,14.5456667 6.87680441,11.8734 C6.64976309,11.0865333 7.10459504,10.2622667 7.88912397,10.0364 C8.2630303,9.9286 8.65566942,9.9726 8.99660606,10.1574 C9.34803306,10.3480667 9.6027989,10.6648667 9.71369697,11.0506 C10.2202314,12.8062 12.8091019,15.1382 14.8921873,16.7845333 C15.0525399,16.9128667 15.288573,16.8879333 15.4189532,16.7302667 C15.5493333,16.5726 15.5238567,16.3416 15.3627548,16.2147333 C12.5378512,13.9817333 10.7882094,12.0772667 10.4352837,10.8518667 Z" id="Path"></path>
                        <path d="M13.9667879,9.73133333 C13.0069201,6.69973333 9.75041322,4.95 6.67598898,5.8278 C5.15263912,6.2656 3.89154821,7.2688 3.12575207,8.65186667 C2.34721763,10.0554667 2.16438567,11.5925333 2.59598898,13.0951333 C3.26961983,15.433 1.69981267,16.5953333 0.775911846,16.8835333 C0.578842975,16.9451333 0.470192837,17.1512 0.532385675,17.3440667 C0.583338843,17.5002667 0.730953168,17.6 0.889807163,17.6 C0.927272727,17.6 0.965487603,17.5941333 1.00220386,17.5831333 C2.62071625,17.0778667 4.03541598,15.3963333 3.31607713,12.8964 C2.93842424,11.5815333 3.09952617,10.2344 3.78289807,9.00166667 C4.45353168,7.79166667 5.5557686,6.9146 6.88504683,6.53253333 C9.59006061,5.76253333 12.4516804,7.3194 13.2684298,10.0048667 C13.2766722,10.0327333 13.2886612,10.0598667 13.3036474,10.0848 C13.3411129,10.1478667 13.4415207,10.3165333 16.3825675,12.7468 C16.5414215,12.8766 16.7774545,12.8568 16.910832,12.7028 C17.0442094,12.5480667 17.0247273,12.3170667 16.8666226,12.1865333 C15.594292,11.1342 14.1691019,9.93153333 13.9667879,9.73133333 Z" id="Path"></path>
                        <path d="M12.2133994,10.3392667 C11.9099284,9.28473333 11.2100716,8.41573333 10.2427107,7.8914 C9.29633058,7.37806667 8.20383471,7.2578 7.16603857,7.5548 C5.07620937,8.1554 3.87431405,10.3077333 4.37035813,12.5612667 C5.31224242,16.8483333 4.26695317,18.0942667 2.27453444,18.7168667 C2.07746556,18.7784667 1.96881543,18.9845333 2.03100826,19.1781333 C2.08196143,19.3336 2.22957576,19.4333333 2.38842975,19.4333333 C2.42589532,19.4333333 2.4648595,19.4274667 2.50157576,19.415 C5.25454545,18.5555333 6.00760331,16.5242 5.10243526,12.4058 C4.69031405,10.5314 5.66816529,8.74866667 7.37584573,8.25806667 C8.21882094,8.01826667 9.10750413,8.11506667 9.87929477,8.53233333 C10.6698182,8.96133333 11.242292,9.6734 11.4918127,10.5372667 C11.7053664,11.2794 12.2006612,12.2312667 15.64,14.9504667 C15.8018512,15.0788 16.037135,15.0538667 16.1675152,14.8962 C16.297146,14.7385333 16.2716694,14.5075333 16.1113168,14.3806667 C12.5693223,11.5800667 12.3467769,10.8034667 12.2133994,10.3392667 Z" id="Path"></path>
                        <path d="M13.5711515,16.8483333 C11.9766171,15.6442 9.30831956,13.6297333 8.65566942,11.3637333 C8.59947107,11.1686667 8.39341047,11.0557333 8.19334435,11.11 C7.99402755,11.165 7.8778843,11.3674 7.93408264,11.5624667 C8.6541708,14.0616667 11.4453554,16.1692667 13.1133223,17.4284 C13.5546667,17.7613333 13.9360661,18.0495333 14.1099063,18.2233333 C14.1833388,18.2966667 14.28,18.3333333 14.3774105,18.3333333 C14.4718237,18.3333333 14.5662369,18.2981333 14.6396694,18.2299333 C14.7880331,18.0884 14.790281,17.8559333 14.6456639,17.7114667 C14.4351074,17.501 14.053708,17.2128 13.5711515,16.8483333 Z" id="Path"></path>
                        <path d="M11.2730138,20.1791333 C10.7170248,19.4443333 9.87554821,18.3333333 8.75757576,18.3333333 C8.46459504,18.3333333 8.19559229,18.4484667 7.97904132,18.6662667 C7.21324518,19.4384667 7.25220937,21.4206667 7.25895317,21.6443333 C7.26569697,21.8430667 7.43204408,22 7.63360882,22 C7.63735537,22 7.64110193,22 7.64484848,22 C7.8516584,21.9934 8.01425895,21.824 8.00826446,21.6223333 C7.98653444,20.8970667 8.10492562,19.5917333 8.51704683,19.1766667 C8.6144573,19.0791333 8.69613223,19.0666667 8.75757576,19.0666667 C9.49789532,19.0666667 10.2044959,19.9987333 10.6713168,20.6162 C10.8436584,20.8435333 10.992022,21.0371333 11.1119118,21.1566667 C11.2572782,21.3018667 11.4948099,21.3026 11.6424242,21.1625333 C11.7900386,21.021 11.7922865,20.7885333 11.6476694,20.6440667 C11.5450138,20.5414 11.4206281,20.3742 11.2730138,20.1791333 Z" id="Path"></path>
                        <path d="M6.02258953,15.4161333 C5.82477135,15.477 5.71462259,15.6823333 5.77681543,15.8759333 C6.16346006,17.0859333 5.3901708,20.1476 4.1433168,20.5516667 C3.94699725,20.6154667 3.84059504,20.823 3.90578512,21.0151333 C3.95823691,21.1691333 4.10435262,21.2666667 4.26170799,21.2666667 C4.30067218,21.2666667 4.34038567,21.2608 4.37860055,21.2476 C6.09602204,20.691 6.9892011,17.2113333 6.4916584,15.6566667 C6.43021488,15.4630667 6.22115702,15.3545333 6.02258953,15.4161333 Z" id="Path"></path>
                        <path d="M0.889807163,11.7971333 C1.09661708,11.7971333 1.26446281,11.6328667 1.26446281,11.4304667 C1.26446281,7.55406667 4.41831405,4.4 8.29450138,4.4 C12.104,4.4 13.4332782,6.4922 14.5002975,8.17373333 C15.1117355,9.13586667 15.64,9.96746667 16.5069532,10.2483333 C16.704022,10.3136 16.9160771,10.2087333 16.9805179,10.0158667 C17.045708,9.823 16.9393058,9.6162 16.7429862,9.5524 C16.1337961,9.3544 15.6714711,8.62766667 15.1372121,7.78653333 C14.0327273,6.0478 12.5198678,3.66666667 8.29450138,3.66666667 C4.00544353,3.66666667 0.515151515,7.14926667 0.515151515,11.4304667 C0.515151515,11.6328667 0.682997245,11.7971333 0.889807163,11.7971333 Z" id="Path"></path>
                        <path d="M1.26446281,15.0333333 C1.32740496,15.0333333 1.39184573,15.0179333 1.45104132,14.9849333 C1.63087603,14.8837333 1.69231956,14.6593333 1.58966391,14.4840667 C1.46377961,14.2692 1.26446281,13.8299333 1.26446281,13.5666667 C1.26446281,13.3642667 1.09661708,13.2 0.889807163,13.2 C0.682997245,13.2 0.515151515,13.3642667 0.515151515,13.5666667 C0.515151515,14.1115333 0.896550964,14.7752 0.939261708,14.8492667 C1.00894766,14.9673333 1.13483196,15.0333333 1.26446281,15.0333333 Z" id="Path"></path>
                        <path d="M1.13932782,4.92213333 C1.3169146,5.02626667 1.54695317,4.96833333 1.65260606,4.79453333 C2.06173003,4.12133333 4.07063361,2.2 7.80969697,2.2 C11.4018953,2.2 13.9660386,4.03113333 14.4298623,4.79453333 C14.4995482,4.9104 14.6246832,4.9742 14.7520661,4.9742 C14.8172562,4.9742 14.8831956,4.95733333 14.9431405,4.92213333 C15.1207273,4.81873333 15.1791736,4.5936 15.0735207,4.4198 C14.4478457,3.3902 11.6746446,1.46666667 7.80969697,1.46666667 C3.70272176,1.46666667 1.50798898,3.59846667 1.00894766,4.4198 C0.903294766,4.5936 0.961741047,4.81873333 1.13932782,4.92213333 Z" id="Path"></path>
                        <path d="M3.82261157,1.62433333 C4.03316804,1.53046667 4.21150413,1.4388 4.38084848,1.35226667 C5.08295317,0.992933333 5.5894876,0.733333333 7.83217631,0.733333333 C10.3491129,0.733333333 11.276011,1.07726667 12.2583581,1.44246667 C12.4351956,1.50773333 12.6120331,1.57373333 12.7986116,1.63753333 C12.8398237,1.65146667 12.8817851,1.65806667 12.9229972,1.65806667 C13.0773554,1.65806667 13.2219725,1.56346667 13.2766722,1.4124 C13.3448595,1.221 13.2429532,1.012 13.0473829,0.945266667 C12.8667989,0.882933333 12.6952066,0.819133333 12.5243636,0.756066667 C11.5225344,0.384266667 10.4862369,0 7.83217631,0 C5.40515702,0 4.7997135,0.3102 4.03316804,0.7018 C3.87506336,0.7832 3.70796694,0.869 3.51089807,0.957 C3.32282094,1.04133333 3.23964738,1.25913333 3.32581818,1.4432 C3.41198898,1.62726667 3.63378512,1.7072 3.82261157,1.62433333 Z" id="Path"></path>
                        <path d="M16.2679229,7.80926667 C16.3181267,7.9662 16.465741,8.06666667 16.6253444,8.06666667 C16.6620606,8.06666667 16.7002755,8.06153333 16.7362424,8.0498 C16.9340606,7.98966667 17.0442094,7.7836 16.9820165,7.59073333 C16.7384904,6.83026667 16.0438788,5.76253333 16.0146556,5.71706667 C15.9030083,5.54693333 15.6714711,5.49706667 15.4976309,5.6056 C15.3230413,5.71413333 15.2728375,5.94146667 15.3837355,6.1116 C15.3904793,6.12186667 16.0543691,7.14266667 16.2679229,7.80926667 Z" id="Path"></path>
                    </g>
                </g>
                <g id="noun_finger-print_410657-copy-2" opacity="0.690057664" transform="translate(200.000000, 122.000000)" fill="#4C91B4">
                    <g id="Group">
                        <path d="M16.2918937,18.7441333 C16.0217771,17.7510667 15.3984311,16.9302667 14.5367469,16.4362667 C13.6921742,15.9524 12.7180433,15.8396667 11.7952468,16.1208667 C9.87387447,16.7060667 8.76040742,18.8277333 9.31041858,20.8531333 C10.6573348,25.8108667 15.4167648,30.3113333 19.8938557,34.0594 C20.0075247,34.1544 20.1431941,34.2 20.2776413,34.2 C20.4560893,34.2 20.6320929,34.1202 20.7543176,33.9644 C20.9657664,33.6920667 20.92421,33.2930667 20.6626491,33.0739333 C16.3346723,29.4512667 11.7414679,25.1243333 10.4874425,20.5086 C10.1171016,19.1494667 10.8590056,17.7257333 12.1386982,17.3356 C12.7485995,17.1494 13.389057,17.2254 13.9451794,17.5446 C14.5184132,17.8739333 14.9339772,18.4211333 15.1148698,19.0874 C15.9411088,22.1198 20.1639723,26.1478 23.5618191,28.9914667 C23.8233799,29.2131333 24.2083878,29.1700667 24.4210587,28.8977333 C24.6337297,28.6254 24.5921733,28.2264 24.3293902,28.0072667 C19.7215189,24.1502667 16.867572,20.8607333 16.2918937,18.7441333 Z" id="Path"></path>
                        <path d="M22.052344,16.8086667 C20.4866455,11.5722667 15.1747599,8.55 10.1598803,10.0662 C7.67505204,10.8224 5.61801027,12.5552 4.3688738,14.9441333 C3.09895912,17.3685333 2.80073085,20.0234667 3.50474514,22.6188667 C4.60354523,26.657 2.04293768,28.6646667 0.535907081,29.1624667 C0.214456109,29.2688667 0.0372302881,29.6248 0.138676792,29.9579333 C0.221789591,30.2277333 0.462572258,30.4 0.721688631,30.4 C0.782800983,30.4 0.845135582,30.3898667 0.905025687,30.3708667 C3.54507929,29.4981333 5.85268171,26.5936667 4.67932455,22.2756 C4.06331204,20.0044667 4.32609515,17.6776 5.44078445,15.5483333 C6.53469556,13.4583333 8.33262095,11.9434 10.5008872,11.2834667 C14.913199,9.95346667 19.5809605,12.6426 20.9132097,17.2811333 C20.9266545,17.3292667 20.9462104,17.3761333 20.9706553,17.4192 C21.0317677,17.5281333 21.1955488,17.8194667 25.9928684,22.0172 C26.2519848,22.2414 26.6369926,22.2072 26.8545526,21.9412 C27.0721126,21.6739333 27.0403342,21.2749333 26.78244,21.0494667 C24.7070646,19.2318 22.3823507,17.1544667 22.052344,16.8086667 Z" id="Path"></path>
                        <path d="M19.1922859,17.8587333 C18.6972759,16.0372667 17.5556971,14.5362667 15.9777762,13.6306 C14.4340782,12.7439333 12.652042,12.5362 10.9592298,13.0492 C7.55038285,14.0866 5.58989859,17.8042667 6.39902613,21.6967333 C7.93539066,29.1016667 6.23035604,31.2537333 2.98040116,32.3291333 C2.65895019,32.4355333 2.48172437,32.7914667 2.58317087,33.1258667 C2.66628367,33.3944 2.90706634,33.5666667 3.16618271,33.5666667 C3.22729506,33.5666667 3.29085191,33.5565333 3.35074201,33.535 C7.84127764,32.0504667 9.06963592,28.5418 7.59316149,21.4282 C6.92092562,18.1906 8.51595801,15.1113333 11.301459,14.2639333 C12.6764869,13.8497333 14.1260719,14.0169333 15.3849864,14.7376667 C16.674457,15.4786667 17.6082537,16.7086 18.015262,18.2007333 C18.3636024,19.4826 19.1715077,21.1267333 24.7816216,25.8235333 C25.045627,26.0452 25.4294126,26.0021333 25.6420835,25.7298 C25.8535323,25.4574667 25.8119759,25.0584667 25.550415,24.8393333 C19.7728532,20.0019333 19.4098459,18.6605333 19.1922859,17.8587333 Z" id="Path"></path>
                        <path d="M21.4069975,29.1016667 C18.8060558,27.0218 14.4536341,23.5422667 13.389057,19.6282667 C13.2973884,19.2913333 12.9612705,19.0962667 12.6349305,19.19 C12.3098128,19.285 12.1203645,19.6346 12.2120331,19.9715333 C13.3866125,24.2883333 17.9394827,27.9287333 20.6602046,30.1036 C21.3801081,30.6786667 22.0022319,31.1764667 22.2857932,31.4766667 C22.4055734,31.6033333 22.5632432,31.6666667 22.7221354,31.6666667 C22.8761385,31.6666667 23.0301416,31.6058667 23.1499218,31.4880667 C23.3919267,31.2436 23.3955935,30.8420667 23.1596998,30.5925333 C22.8162484,30.229 22.1941246,29.7312 21.4069975,29.1016667 Z" id="Path"></path>
                        <path d="M17.6583659,34.8548667 C16.7514586,33.5856667 15.3788751,31.6666667 13.5552826,31.6666667 C13.077384,31.6666667 12.6385973,31.8655333 12.2853679,32.2417333 C11.0362314,33.5755333 11.0997883,36.9993333 11.1107885,37.3856667 C11.1217887,37.7289333 11.3931275,38 11.721912,38 C11.7280232,38 11.7341345,38 11.7402457,38 C12.0775859,37.9886 12.3428135,37.696 12.3330355,37.3476667 C12.2975904,36.0949333 12.4907054,33.8402667 13.1629413,33.1233333 C13.3218334,32.9548667 13.4550583,32.9333333 13.5552826,32.9333333 C14.7628626,32.9333333 15.9154416,34.5432667 16.6769015,35.6098 C16.9580183,36.0024667 17.2000232,36.3368667 17.3955828,36.5433333 C17.6326987,36.7941333 18.020151,36.7954 18.2609337,36.5534667 C18.5017163,36.309 18.5053831,35.9074667 18.2694894,35.6579333 C18.1020415,35.4806 17.8991485,35.1918 17.6583659,34.8548667 Z" id="Path"></path>
                        <path d="M9.09408086,26.6278667 C8.77140764,26.733 8.59173732,27.0876667 8.69318383,27.4220667 C9.3238633,29.5120667 8.06250436,34.8004 6.02868528,35.4983333 C5.70845656,35.6085333 5.53489748,35.967 5.64123297,36.2988667 C5.72679026,36.5648667 5.96512843,36.7333333 6.22180031,36.7333333 C6.28535716,36.7333333 6.35013625,36.7232 6.41247085,36.7004 C9.21386107,35.739 10.6707795,29.7286667 9.85920751,27.0433333 C9.75898325,26.7089333 9.41797632,26.5214667 9.09408086,26.6278667 Z" id="Path"></path>
                        <path d="M0.721688631,20.3768667 C1.05902881,20.3768667 1.33281215,20.0931333 1.33281215,19.7435333 C1.33281215,13.0479333 6.47724994,7.6 12.7999339,7.6 C19.0138378,7.6 21.1821041,11.2138 22.9225839,14.1182667 C23.9199375,15.7801333 24.7816216,17.2165333 26.1957614,17.7016667 C26.5172124,17.8144 26.8631083,17.6332667 26.9682216,17.3001333 C27.0745571,16.967 26.900998,16.6098 26.5807693,16.4996 C25.5870824,16.1576 24.832956,14.9023333 23.9614939,13.4494667 C22.1599017,10.4462 19.6921849,6.33333333 12.7999339,6.33333333 C5.80379182,6.33333333 0.110565111,12.3487333 0.110565111,19.7435333 C0.110565111,20.0931333 0.384348448,20.3768667 0.721688631,20.3768667 Z" id="Path"></path>
                        <path d="M1.33281215,25.9666667 C1.4354809,25.9666667 1.54059415,25.9400667 1.63715166,25.8830667 C1.93049095,25.7082667 2.03071521,25.3206667 1.86326737,25.0179333 C1.65792986,24.6468 1.33281215,23.8880667 1.33281215,23.4333333 C1.33281215,23.0837333 1.05902881,22.8 0.721688631,22.8 C0.384348448,22.8 0.110565111,23.0837333 0.110565111,23.4333333 C0.110565111,24.3744667 0.732688854,25.5208 0.802356935,25.6487333 C0.91602591,25.8526667 1.12136341,25.9666667 1.33281215,25.9666667 Z" id="Path"></path>
                        <path d="M1.1286969,8.50186667 C1.41836944,8.68173333 1.79359929,8.58166667 1.96593612,8.28146667 C2.633283,7.11866667 5.91012732,3.8 12.00914,3.8 C17.8685924,3.8 22.0511217,6.96286667 22.8076927,8.28146667 C22.9213616,8.4816 23.1254769,8.5918 23.3332589,8.5918 C23.4395944,8.5918 23.5471521,8.56266667 23.6449319,8.50186667 C23.9346044,8.32326667 24.0299397,7.9344 23.8576029,7.6342 C22.8370266,5.8558 18.3134903,2.53333333 12.00914,2.53333333 C5.31000402,2.53333333 1.73004244,6.21553333 0.91602591,7.6342 C0.743689078,7.9344 0.839024347,8.32326667 1.1286969,8.50186667 Z" id="Path"></path>
                        <path d="M5.50556355,2.80566667 C5.84901497,2.64353333 6.13990976,2.4852 6.41613759,2.33573333 C7.56138307,1.71506667 8.38762207,1.26666667 12.0458075,1.26666667 C16.1513353,1.26666667 17.6632549,1.86073333 19.2656207,2.49153333 C19.554071,2.60426667 19.8425213,2.71826667 20.1468608,2.82846667 C20.2140844,2.85253333 20.2825303,2.86393333 20.3497539,2.86393333 C20.6015367,2.86393333 20.8374304,2.70053333 20.9266545,2.4396 C21.0378789,2.109 20.8716533,1.748 20.5526469,1.63273333 C20.2580853,1.52506667 19.9781908,1.41486667 19.6995184,1.30593333 C18.0653741,0.663733333 16.3750065,0 12.0458075,0 C8.0869493,0 7.09937369,0.5358 5.84901497,1.2122 C5.59112084,1.3528 5.31855975,1.501 4.99710878,1.653 C4.69032477,1.79866667 4.55465535,2.17486667 4.69521376,2.4928 C4.83577217,2.81073333 5.19755729,2.9488 5.50556355,2.80566667 Z" id="Path"></path>
                        <path d="M25.8058646,13.4887333 C25.8877552,13.7598 26.1285379,13.9333333 26.3888765,13.9333333 C26.4487666,13.9333333 26.5111012,13.9244667 26.569769,13.9042 C26.8924423,13.8003333 27.0721126,13.4444 26.9706661,13.1112667 C26.5734358,11.7977333 25.4404128,9.95346667 25.3927451,9.87493333 C25.2106303,9.58106667 24.832956,9.49493333 24.5493947,9.6824 C24.2646111,9.86986667 24.1827206,10.2625333 24.3636131,10.5564 C24.3746134,10.5741333 25.4575242,12.3373333 25.8058646,13.4887333 Z" id="Path"></path>
                    </g>
                </g>
                <g id="noun_finger-print_410657-copy" opacity="0.472330729" transform="translate(1183.000000, 86.000000)" fill="#D4088C">
                    <g id="Group">
                        <path d="M24.1471248,25.6498667 C23.7472292,24.2909333 22.8243932,23.1677333 21.5487081,22.4917333 C20.2983558,21.8296 18.8561983,21.6753333 17.4900391,22.0601333 C14.6455328,22.8609333 12.9970944,25.7642667 13.8113615,28.5358667 C15.805411,35.3201333 22.8515355,41.4786667 29.4796694,46.6076 C29.6479513,46.7376 29.8488038,46.8 30.0478469,46.8 C30.3120313,46.8 30.5725968,46.6908 30.753545,46.4776 C31.0665855,46.1049333 31.0050631,45.5589333 30.6178338,45.2590667 C24.2104567,40.3017333 17.4104219,34.3806667 15.553893,28.0644 C15.0056198,26.2045333 16.1039756,24.2562667 17.9985037,23.7224 C18.9014354,23.4676 19.8496042,23.5716 20.6729187,24.0084 C21.5215659,24.4590667 22.1367899,25.2078667 22.4045933,26.1196 C23.6278034,30.2692 29.879565,35.7812 34.9099261,39.6725333 C35.2971553,39.9758667 35.8671422,39.9169333 36.1819922,39.5442667 C36.4968421,39.1716 36.4353197,38.6256 36.046281,38.3257333 C29.2245324,33.0477333 24.999391,28.5462667 24.1471248,25.6498667 Z" id="Path"></path>
                        <path d="M32.6752153,23.0013333 C30.3572684,15.8357333 22.4932579,11.7 15.0689517,13.7748 C11.390274,14.8096 8.34491518,17.1808 6.49562418,20.4498667 C4.61557199,23.7674667 4.17405829,27.4005333 5.21632014,30.9521333 C6.8430448,36.478 3.05217921,39.2253333 0.821087429,39.9065333 C0.345193562,40.0521333 0.0828186168,40.5392 0.233005655,40.9950667 C0.356050457,41.3642667 0.712518486,41.6 1.09612875,41.6 C1.18660287,41.6 1.27888647,41.5861333 1.36755111,41.5601333 C5.27603306,40.3658667 8.6923358,36.3913333 6.95523271,30.4824 C6.04325359,27.3745333 6.4322923,24.1904 8.08254023,21.2766667 C9.70202697,18.4166667 12.3637756,16.3436 15.5737973,15.4405333 C22.1060287,13.6205333 29.0164419,17.3004 30.9887777,23.6478667 C31.008682,23.7137333 31.0376338,23.7778667 31.0738234,23.8368 C31.1642975,23.9858667 31.4067682,24.3845333 38.5089865,30.1288 C38.8925968,30.4356 39.4625837,30.3888 39.7846716,30.0248 C40.1067595,29.6590667 40.0597129,29.1130667 39.6779121,28.8045333 C36.605411,26.3172 33.1637756,23.4745333 32.6752153,23.0013333 Z" id="Path"></path>
                        <path d="M28.4410265,24.4382667 C27.7081862,21.9457333 26.0181296,19.8917333 23.6820879,18.6524 C21.3967116,17.4390667 18.7584863,17.1548 16.2523532,17.8568 C11.2057068,19.2764 8.30329709,24.3637333 9.50117442,29.6902667 C11.7756938,39.8233333 9.25146585,42.7682667 4.4400522,44.2398667 C3.96415833,44.3854667 3.70178338,44.8725333 3.85197042,45.3301333 C3.97501522,45.6976 4.33148325,45.9333333 4.71509352,45.9333333 C4.80556764,45.9333333 4.89966072,45.9194667 4.98832536,45.89 C11.6363636,43.8585333 13.4548934,39.0572 11.2690387,29.3228 C10.2738234,24.8924 12.6351979,20.6786667 16.7590083,19.5190667 C18.7946759,18.9522667 20.9407221,19.1810667 22.8044889,20.1673333 C24.7134928,21.1813333 26.0959374,22.8644 26.698495,24.9062667 C27.2141975,26.6604 28.4102653,28.9102667 36.7157895,35.3374667 C37.1066377,35.6408 37.6748151,35.5818667 37.9896651,35.2092 C38.3027055,34.8365333 38.2411831,34.2905333 37.8539539,33.9906667 C29.3005307,27.3710667 28.7631144,25.5354667 28.4410265,24.4382667 Z" id="Path"></path>
                        <path d="M31.7198086,39.8233333 C27.8692301,36.9772 21.4256633,32.2157333 19.8496042,26.8597333 C19.713893,26.3986667 19.2162853,26.1317333 18.7331535,26.26 C18.2518312,26.39 17.9713615,26.8684 18.1070726,27.3294667 C19.8459852,33.2366667 26.5863071,38.2182667 30.6142149,41.1944 C31.68,41.9813333 32.6010265,42.6625333 33.0208264,43.0733333 C33.1981557,43.2466667 33.4315789,43.3333333 33.6668117,43.3333333 C33.8948064,43.3333333 34.1228012,43.2501333 34.3001305,43.0889333 C34.658408,42.7544 34.6638365,42.2049333 34.3146064,41.8634667 C33.8061418,41.366 32.8851153,40.6848 31.7198086,39.8233333 Z" id="Path"></path>
                        <path d="M26.1701261,47.6961333 C24.8274902,45.9593333 22.7954415,43.3333333 20.0956938,43.3333333 C19.3881862,43.3333333 18.738582,43.6054667 18.2156416,44.1202667 C16.3663506,45.9454667 16.4604437,50.6306667 16.476729,51.1593333 C16.4930144,51.6290667 16.8947194,52 17.3814702,52 C17.3905176,52 17.399565,52 17.4086124,52 C17.9080296,51.9844 18.3006873,51.584 18.2862114,51.1073333 C18.2337364,49.3930667 18.5196346,46.3077333 19.5148499,45.3266667 C19.7500826,45.0961333 19.9473162,45.0666667 20.0956938,45.0666667 C21.8834624,45.0666667 23.5898043,47.2697333 24.7171118,48.7292 C25.1332927,49.2665333 25.4915702,49.7241333 25.7810874,50.0066667 C26.132127,50.3498667 26.7057329,50.3516 27.062201,50.0205333 C27.418669,49.686 27.4240974,49.1365333 27.0748673,48.7950667 C26.8269682,48.5524 26.5265942,48.1572 26.1701261,47.6961333 Z" id="Path"></path>
                        <path d="M13.4910831,36.4381333 C13.0133797,36.582 12.7473858,37.0673333 12.8975729,37.5249333 C13.8312658,40.3849333 11.9638799,47.6216 8.95290126,48.5766667 C8.47881688,48.7274667 8.22187038,49.218 8.37929535,49.6721333 C8.50595911,50.0361333 8.85880818,50.2666667 9.23879948,50.2666667 C9.33289256,50.2666667 9.42879513,50.2528 9.52107873,50.2216 C13.6684124,48.906 15.8253154,40.6813333 14.6238191,37.0066667 C14.4754415,36.5490667 13.9705959,36.2925333 13.4910831,36.4381333 Z" id="Path"></path>
                        <path d="M1.09612875,27.8841333 C1.59554589,27.8841333 2.00086994,27.4958667 2.00086994,27.0174667 C2.00086994,17.8550667 9.6169813,10.4 18.9774337,10.4 C28.1768421,10.4 31.3868639,15.3452 33.9635668,19.3197333 C35.4401044,21.5938667 36.7157895,23.5594667 38.8093606,24.2233333 C39.2852545,24.3776 39.797338,24.1297333 39.9529535,23.6738667 C40.1103784,23.218 39.8534319,22.7292 39.3793475,22.5784 C37.9082384,22.1104 36.7917877,20.3926667 35.5016268,18.4045333 C32.8344498,14.2948 29.1811048,8.66666667 18.9774337,8.66666667 C8.6199565,8.66666667 0.19138756,16.8982667 0.19138756,27.0174667 C0.19138756,27.4958667 0.596711614,27.8841333 1.09612875,27.8841333 Z" id="Path"></path>
                        <path d="M2.00086994,35.5333333 C2.15286646,35.5333333 2.30848195,35.4969333 2.45143106,35.4189333 C2.88570683,35.1797333 3.03408438,34.6493333 2.7861853,34.2350667 C2.48219226,33.7272 2.00086994,32.6889333 2.00086994,32.0666667 C2.00086994,31.5882667 1.59554589,31.2 1.09612875,31.2 C0.596711614,31.2 0.19138756,31.5882667 0.19138756,32.0666667 C0.19138756,33.3545333 1.11241409,34.9232 1.21555459,35.0982667 C1.38383645,35.3773333 1.68782949,35.5333333 2.00086994,35.5333333 Z" id="Path"></path>
                        <path d="M1.69868639,11.6341333 C2.12753371,11.8802667 2.6830448,11.7433333 2.93818182,11.3325333 C3.9261592,9.74133333 8.77738147,5.2 17.8066986,5.2 C26.4813571,5.2 32.6734058,9.52813333 33.7934754,11.3325333 C33.9617573,11.6064 34.2639408,11.7572 34.5715528,11.7572 C34.7289778,11.7572 34.8882123,11.7173333 35.0329709,11.6341333 C35.4618182,11.3897333 35.6029578,10.8576 35.3478208,10.4468 C33.836903,8.0132 27.1400087,3.46666667 17.8066986,3.46666667 C7.88892562,3.46666667 2.58895172,8.50546667 1.38383645,10.4468 C1.12869943,10.8576 1.26983906,11.3897333 1.69868639,11.6341333 Z" id="Path"></path>
                        <path d="M8.1784428,3.83933333 C8.68690735,3.61746667 9.11756416,3.4008 9.52650718,3.19626667 C11.2219922,2.34693333 12.4452023,1.73333333 17.860983,1.73333333 C23.9390344,1.73333333 26.1773641,2.54626667 28.5495955,3.40946667 C28.9766333,3.56373333 29.4036712,3.71973333 29.8542323,3.87053333 C29.9537538,3.90346667 30.0550848,3.91906667 30.1546064,3.91906667 C30.5273597,3.91906667 30.8765898,3.69546667 31.008682,3.3384 C31.1733449,2.886 30.9272553,2.392 30.4549804,2.23426667 C30.0188952,2.08693333 29.6045237,1.93613333 29.1919617,1.78706667 C26.7726838,0.908266667 24.2701696,0 17.860983,0 C12.0000696,0 10.5380078,0.7332 8.68690735,1.6588 C8.30510657,1.8512 7.901592,2.054 7.42569813,2.262 C6.97151805,2.46133333 6.77066551,2.97613333 6.97875598,3.4112 C7.18684645,3.84626667 7.72245324,4.0352 8.1784428,3.83933333 Z" id="Path"></path>
                        <path d="M38.2321357,18.4582667 C38.353371,18.8292 38.7098391,19.0666667 39.0952588,19.0666667 C39.1839234,19.0666667 39.276207,19.0545333 39.3630622,19.0268 C39.8407656,18.8846667 40.1067595,18.3976 39.9565724,17.9417333 C39.3684906,16.1442667 37.6911005,13.6205333 37.6205307,13.5130667 C37.3509178,13.1109333 36.7917877,12.9930667 36.3719878,13.2496 C35.9503784,13.5061333 35.8291431,14.0434667 36.0969465,14.4456 C36.1132318,14.4698667 37.7164332,16.8826667 38.2321357,18.4582667 Z" id="Path"></path>
                    </g>
                </g>
            </g>
        </g>
    </g>
</svg>