<svg xmlns="http://www.w3.org/2000/svg" xmlns:xlink="http://www.w3.org/1999/xlink" width="1920" height="1070" viewBox="0 0 1920 1070">
  <defs>
    <filter id="Rectangle_2" x="243" y="41" width="1458" height="948" filterUnits="userSpaceOnUse">
      <feOffset dx="5" dy="5" input="SourceAlpha"/>
      <feGaussianBlur stdDeviation="10" result="blur"/>
      <feFlood/>
      <feComposite operator="in" in2="blur"/>
      <feComposite in="SourceGraphic"/>
    </filter>
    <clipPath id="clip-path">
      <rect width="73" height="279" fill="none"/>
    </clipPath>
    <clipPath id="clip-path-2">
      <rect width="314" height="114" fill="none"/>
    </clipPath>
    <clipPath id="clip-path-3">
      <rect width="185" height="517" fill="none"/>
    </clipPath>
    <clipPath id="clip-path-4">
      <rect width="185" height="280" fill="none"/>
    </clipPath>
    <clipPath id="clip-Web_1920_1">
      <rect width="1920" height="1070"/>
    </clipPath>
  </defs>
  <g id="Web_1920_1" data-name="Web 1920 – 1" clip-path="url(#clip-Web_1920_1)">
    <rect width="1920" height="1070" fill="#fff"/>
    <g id="Group_9" data-name="Group 9">
      <g id="portfolio_header_section" data-name="portfolio header section" transform="translate(0 13)">
        <g id="Group_8" data-name="Group 8" transform="translate(1 -10)">
          <g id="Group_6" data-name="Group 6" transform="translate(0 -10)">
            <g id="Rectangle_1" data-name="Rectangle 1" transform="translate(-1 9)" fill="#100f39" stroke="#fff" stroke-width="1">
              <rect width="1921" height="1090" stroke="none"/>
              <rect x="0.5" y="0.5" width="1920" height="1089" fill="none"/>
            </g>
            <g id="lower_red_half_circle" data-name="lower red half circle" transform="translate(-206 -426)">
              <path id="Intersection_2" data-name="Intersection 2" d="M13.381,254a177,177,0,1,1,325.238,0Z" transform="translate(306 1271)" fill="#f50411"/>
            </g>
          </g>
          <path id="upper_half_circle" data-name="upper half circle" d="M1,234a230.215,230.215,0,0,1,21.3-97H454.7A230.215,230.215,0,0,1,476,234c0,129.235-106.332,234-237.5,234S1,363.235,1,234Z" transform="translate(1362 -138)" fill="#f50411"/>
          <g id="Group_7" data-name="Group 7" transform="translate(-84 20)">
            <g id="Group_4" data-name="Group 4" transform="translate(137 -29)">
              <g transform="matrix(1, 0, 0, 1, -54, 6)" filter="url(#Rectangle_2)">
                <rect id="Rectangle_2-2" data-name="Rectangle 2" width="1398" height="888" rx="25" transform="translate(268 66)" fill="#100f39"/>
              </g>
            </g>
            <path id="Intersection_1" data-name="Intersection 1" d="M3419,1152.656V682.344A257.558,257.558,0,0,1,3526.5,659c142.765,0,258.5,115.735,258.5,258.5S3669.265,1176,3526.5,1176A257.557,257.557,0,0,1,3419,1152.656Z" transform="translate(-3068 -431)" fill="#0e1241"/>
            <circle id="Ellipse_3" data-name="Ellipse 3" cx="76" cy="76" r="76" transform="translate(1691 411)" fill="#f50411"/>
            <path id="Path_2" data-name="Path 2" d="M55,0A55,55,0,1,1,0,55,55,55,0,0,1,55,0Z" transform="translate(1515 893)" fill="#f50411"/>
            <circle id="Ellipse_5" data-name="Ellipse 5" cx="93" cy="93" r="93" transform="translate(774 855)" fill="rgba(14,18,65,0.95)"/>
          </g>
          <path id="Subtraction_1" data-name="Subtraction 1" d="M161,237a101.522,101.522,0,0,1-57.029-17.42A102.3,102.3,0,0,1,67.016,174.7,101.886,101.886,0,0,1,80.777,72H241.224a101.868,101.868,0,0,1,4.356,120.029A102.3,102.3,0,0,1,200.7,228.984,101.361,101.361,0,0,1,161,237Z" transform="translate(631 -72)" fill="#0e1241"/>
        </g>
        <g id="Repeat_Grid_2" data-name="Repeat Grid 2" transform="translate(1577 612)" clip-path="url(#clip-path)">
          <g transform="translate(-527 -2211)">
            <text id="_" data-name="***
" transform="translate(555 2246)" fill="#161340" font-size="37" font-family="Calibri"><tspan x="-27.642" y="0">***</tspan><tspan x="0" y="45"></tspan></text>
          </g>
          <g transform="translate(-473 -2211)">
            <text id="_2" data-name="***
" transform="translate(555 2246)" fill="#161340" font-size="37" font-family="Calibri"><tspan x="-27.642" y="0">***</tspan><tspan x="0" y="45"></tspan></text>
          </g>
          <g transform="translate(-527 -2190)">
            <text id="_3" data-name="***
" transform="translate(555 2246)" fill="#161340" font-size="37" font-family="Calibri"><tspan x="-27.642" y="0">***</tspan><tspan x="0" y="45"></tspan></text>
          </g>
          <g transform="translate(-473 -2190)">
            <text id="_4" data-name="***
" transform="translate(555 2246)" fill="#161340" font-size="37" font-family="Calibri"><tspan x="-27.642" y="0">***</tspan><tspan x="0" y="45"></tspan></text>
          </g>
          <g transform="translate(-527 -2169)">
            <text id="_5" data-name="***
" transform="translate(555 2246)" fill="#161340" font-size="37" font-family="Calibri"><tspan x="-27.642" y="0">***</tspan><tspan x="0" y="45"></tspan></text>
          </g>
          <g transform="translate(-473 -2169)">
            <text id="_6" data-name="***
" transform="translate(555 2246)" fill="#161340" font-size="37" font-family="Calibri"><tspan x="-27.642" y="0">***</tspan><tspan x="0" y="45"></tspan></text>
          </g>
          <g transform="translate(-527 -2148)">
            <text id="_7" data-name="***
" transform="translate(555 2246)" fill="#161340" font-size="37" font-family="Calibri"><tspan x="-27.642" y="0">***</tspan><tspan x="0" y="45"></tspan></text>
          </g>
          <g transform="translate(-473 -2148)">
            <text id="_8" data-name="***
" transform="translate(555 2246)" fill="#161340" font-size="37" font-family="Calibri"><tspan x="-27.642" y="0">***</tspan><tspan x="0" y="45"></tspan></text>
          </g>
          <g transform="translate(-527 -2127)">
            <text id="_9" data-name="***
" transform="translate(555 2246)" fill="#161340" font-size="37" font-family="Calibri"><tspan x="-27.642" y="0">***</tspan><tspan x="0" y="45"></tspan></text>
          </g>
          <g transform="translate(-473 -2127)">
            <text id="_10" data-name="***
" transform="translate(555 2246)" fill="#161340" font-size="37" font-family="Calibri"><tspan x="-27.642" y="0">***</tspan><tspan x="0" y="45"></tspan></text>
          </g>
          <g transform="translate(-527 -2106)">
            <text id="_11" data-name="***
" transform="translate(555 2246)" fill="#161340" font-size="37" font-family="Calibri"><tspan x="-27.642" y="0">***</tspan><tspan x="0" y="45"></tspan></text>
          </g>
          <g transform="translate(-473 -2106)">
            <text id="_12" data-name="***
" transform="translate(555 2246)" fill="#161340" font-size="37" font-family="Calibri"><tspan x="-27.642" y="0">***</tspan><tspan x="0" y="45"></tspan></text>
          </g>
          <g transform="translate(-527 -2085)">
            <text id="_13" data-name="***
" transform="translate(555 2246)" fill="#161340" font-size="37" font-family="Calibri"><tspan x="-27.642" y="0">***</tspan><tspan x="0" y="45"></tspan></text>
          </g>
          <g transform="translate(-473 -2085)">
            <text id="_14" data-name="***
" transform="translate(555 2246)" fill="#161340" font-size="37" font-family="Calibri"><tspan x="-27.642" y="0">***</tspan><tspan x="0" y="45"></tspan></text>
          </g>
          <g transform="translate(-527 -2064)">
            <text id="_15" data-name="***
" transform="translate(555 2246)" fill="#161340" font-size="37" font-family="Calibri"><tspan x="-27.642" y="0">***</tspan><tspan x="0" y="45"></tspan></text>
          </g>
          <g transform="translate(-473 -2064)">
            <text id="_16" data-name="***
" transform="translate(555 2246)" fill="#161340" font-size="37" font-family="Calibri"><tspan x="-27.642" y="0">***</tspan><tspan x="0" y="45"></tspan></text>
          </g>
          <g transform="translate(-527 -2043)">
            <text id="_17" data-name="***
" transform="translate(555 2246)" fill="#161340" font-size="37" font-family="Calibri"><tspan x="-27.642" y="0">***</tspan><tspan x="0" y="45"></tspan></text>
          </g>
          <g transform="translate(-473 -2043)">
            <text id="_18" data-name="***
" transform="translate(555 2246)" fill="#161340" font-size="37" font-family="Calibri"><tspan x="-27.642" y="0">***</tspan><tspan x="0" y="45"></tspan></text>
          </g>
          <g transform="translate(-527 -2022)">
            <text id="_19" data-name="***
" transform="translate(555 2246)" fill="#161340" font-size="37" font-family="Calibri"><tspan x="-27.642" y="0">***</tspan><tspan x="0" y="45"></tspan></text>
          </g>
          <g transform="translate(-473 -2022)">
            <text id="_20" data-name="***
" transform="translate(555 2246)" fill="#161340" font-size="37" font-family="Calibri"><tspan x="-27.642" y="0">***</tspan><tspan x="0" y="45"></tspan></text>
          </g>
          <g transform="translate(-527 -2001)">
            <text id="_21" data-name="***
" transform="translate(555 2246)" fill="#161340" font-size="37" font-family="Calibri"><tspan x="-27.642" y="0">***</tspan><tspan x="0" y="45"></tspan></text>
          </g>
          <g transform="translate(-473 -2001)">
            <text id="_22" data-name="***
" transform="translate(555 2246)" fill="#161340" font-size="37" font-family="Calibri"><tspan x="-27.642" y="0">***</tspan><tspan x="0" y="45"></tspan></text>
          </g>
          <g transform="translate(-527 -1980)">
            <text id="_23" data-name="***
" transform="translate(555 2246)" fill="#161340" font-size="37" font-family="Calibri"><tspan x="-27.642" y="0">***</tspan><tspan x="0" y="45"></tspan></text>
          </g>
          <g transform="translate(-473 -1980)">
            <text id="_24" data-name="***
" transform="translate(555 2246)" fill="#161340" font-size="37" font-family="Calibri"><tspan x="-27.642" y="0">***</tspan><tspan x="0" y="45"></tspan></text>
          </g>
          <g transform="translate(-527 -1959)">
            <text id="_25" data-name="***
" transform="translate(555 2246)" fill="#161340" font-size="37" font-family="Calibri"><tspan x="-27.642" y="0">***</tspan><tspan x="0" y="45"></tspan></text>
          </g>
          <g transform="translate(-473 -1959)">
            <text id="_26" data-name="***
" transform="translate(555 2246)" fill="#161340" font-size="37" font-family="Calibri"><tspan x="-27.642" y="0">***</tspan><tspan x="0" y="45"></tspan></text>
          </g>
          <g transform="translate(-527 -1938)">
            <text id="_27" data-name="***
" transform="translate(555 2246)" fill="#161340" font-size="37" font-family="Calibri"><tspan x="-27.642" y="0">***</tspan><tspan x="0" y="45"></tspan></text>
          </g>
          <g transform="translate(-473 -1938)">
            <text id="_28" data-name="***
" transform="translate(555 2246)" fill="#161340" font-size="37" font-family="Calibri"><tspan x="-27.642" y="0">***</tspan><tspan x="0" y="45"></tspan></text>
          </g>
        </g>
        <g id="Repeat_Grid_3" data-name="Repeat Grid 3" transform="translate(664 77)" clip-path="url(#clip-path-2)">
          <g transform="translate(-420 -2125)">
            <text id="_29" data-name="*****************" transform="translate(577 2160)" fill="#161340" font-size="37" font-family="Calibri"><tspan x="-156.636" y="0">*****************</tspan></text>
          </g>
          <g transform="translate(-420 -2104)">
            <text id="_30" data-name="*****************" transform="translate(577 2160)" fill="#161340" font-size="37" font-family="Calibri"><tspan x="-156.636" y="0">*****************</tspan></text>
          </g>
          <g transform="translate(-420 -2083)">
            <text id="_31" data-name="*****************" transform="translate(577 2160)" fill="#161340" font-size="37" font-family="Calibri"><tspan x="-156.636" y="0">*****************</tspan></text>
          </g>
          <g transform="translate(-420 -2062)">
            <text id="_32" data-name="*****************" transform="translate(577 2160)" fill="#161340" font-size="37" font-family="Calibri"><tspan x="-156.636" y="0">*****************</tspan></text>
          </g>
          <g transform="translate(-420 -2041)">
            <text id="_33" data-name="*****************" transform="translate(577 2160)" fill="#161340" font-size="37" font-family="Calibri"><tspan x="-156.636" y="0">*****************</tspan></text>
          </g>
          <g transform="translate(-420 -2020)">
            <text id="_34" data-name="*****************" transform="translate(577 2160)" fill="#161340" font-size="37" font-family="Calibri"><tspan x="-156.636" y="0">*****************</tspan></text>
          </g>
        </g>
        <g id="Repeat_Grid_4" data-name="Repeat Grid 4" transform="translate(28 167)" clip-path="url(#clip-path-3)">
          <g transform="translate(-232 -2402)">
            <text id="_35" data-name="*********" transform="translate(315 2437)" fill="#161340" font-size="37" font-family="Calibri"><tspan x="-82.925" y="0">*********</tspan></text>
          </g>
          <g transform="translate(-65 -2402)">
            <text id="_36" data-name="*********" transform="translate(315 2437)" fill="#161340" font-size="37" font-family="Calibri"><tspan x="-82.925" y="0">*********</tspan></text>
          </g>
          <g transform="translate(-232 -2375)">
            <text id="_37" data-name="*********" transform="translate(315 2437)" fill="#161340" font-size="37" font-family="Calibri"><tspan x="-82.925" y="0">*********</tspan></text>
          </g>
          <g transform="translate(-65 -2375)">
            <text id="_38" data-name="*********" transform="translate(315 2437)" fill="#161340" font-size="37" font-family="Calibri"><tspan x="-82.925" y="0">*********</tspan></text>
          </g>
          <g transform="translate(-232 -2348)">
            <text id="_39" data-name="*********" transform="translate(315 2437)" fill="#161340" font-size="37" font-family="Calibri"><tspan x="-82.925" y="0">*********</tspan></text>
          </g>
          <g transform="translate(-65 -2348)">
            <text id="_40" data-name="*********" transform="translate(315 2437)" fill="#161340" font-size="37" font-family="Calibri"><tspan x="-82.925" y="0">*********</tspan></text>
          </g>
          <g transform="translate(-232 -2321)">
            <text id="_41" data-name="*********" transform="translate(315 2437)" fill="#161340" font-size="37" font-family="Calibri"><tspan x="-82.925" y="0">*********</tspan></text>
          </g>
          <g transform="translate(-65 -2321)">
            <text id="_42" data-name="*********" transform="translate(315 2437)" fill="#161340" font-size="37" font-family="Calibri"><tspan x="-82.925" y="0">*********</tspan></text>
          </g>
          <g transform="translate(-232 -2294)">
            <text id="_43" data-name="*********" transform="translate(315 2437)" fill="#161340" font-size="37" font-family="Calibri"><tspan x="-82.925" y="0">*********</tspan></text>
          </g>
          <g transform="translate(-65 -2294)">
            <text id="_44" data-name="*********" transform="translate(315 2437)" fill="#161340" font-size="37" font-family="Calibri"><tspan x="-82.925" y="0">*********</tspan></text>
          </g>
          <g transform="translate(-232 -2267)">
            <text id="_45" data-name="*********" transform="translate(315 2437)" fill="#161340" font-size="37" font-family="Calibri"><tspan x="-82.925" y="0">*********</tspan></text>
          </g>
          <g transform="translate(-65 -2267)">
            <text id="_46" data-name="*********" transform="translate(315 2437)" fill="#161340" font-size="37" font-family="Calibri"><tspan x="-82.925" y="0">*********</tspan></text>
          </g>
          <g transform="translate(-232 -2240)">
            <text id="_47" data-name="*********" transform="translate(315 2437)" fill="#161340" font-size="37" font-family="Calibri"><tspan x="-82.925" y="0">*********</tspan></text>
          </g>
          <g transform="translate(-65 -2240)">
            <text id="_48" data-name="*********" transform="translate(315 2437)" fill="#161340" font-size="37" font-family="Calibri"><tspan x="-82.925" y="0">*********</tspan></text>
          </g>
          <g transform="translate(-232 -2213)">
            <text id="_49" data-name="*********" transform="translate(315 2437)" fill="#161340" font-size="37" font-family="Calibri"><tspan x="-82.925" y="0">*********</tspan></text>
          </g>
          <g transform="translate(-65 -2213)">
            <text id="_50" data-name="*********" transform="translate(315 2437)" fill="#161340" font-size="37" font-family="Calibri"><tspan x="-82.925" y="0">*********</tspan></text>
          </g>
          <g transform="translate(-232 -2186)">
            <text id="_51" data-name="*********" transform="translate(315 2437)" fill="#161340" font-size="37" font-family="Calibri"><tspan x="-82.925" y="0">*********</tspan></text>
          </g>
          <g transform="translate(-65 -2186)">
            <text id="_52" data-name="*********" transform="translate(315 2437)" fill="#161340" font-size="37" font-family="Calibri"><tspan x="-82.925" y="0">*********</tspan></text>
          </g>
          <g transform="translate(-232 -2159)">
            <text id="_53" data-name="*********" transform="translate(315 2437)" fill="#161340" font-size="37" font-family="Calibri"><tspan x="-82.925" y="0">*********</tspan></text>
          </g>
          <g transform="translate(-65 -2159)">
            <text id="_54" data-name="*********" transform="translate(315 2437)" fill="#161340" font-size="37" font-family="Calibri"><tspan x="-82.925" y="0">*********</tspan></text>
          </g>
          <g transform="translate(-232 -2132)">
            <text id="_55" data-name="*********" transform="translate(315 2437)" fill="#161340" font-size="37" font-family="Calibri"><tspan x="-82.925" y="0">*********</tspan></text>
          </g>
          <g transform="translate(-65 -2132)">
            <text id="_56" data-name="*********" transform="translate(315 2437)" fill="#161340" font-size="37" font-family="Calibri"><tspan x="-82.925" y="0">*********</tspan></text>
          </g>
          <g transform="translate(-232 -2105)">
            <text id="_57" data-name="*********" transform="translate(315 2437)" fill="#161340" font-size="37" font-family="Calibri"><tspan x="-82.925" y="0">*********</tspan></text>
          </g>
          <g transform="translate(-65 -2105)">
            <text id="_58" data-name="*********" transform="translate(315 2437)" fill="#161340" font-size="37" font-family="Calibri"><tspan x="-82.925" y="0">*********</tspan></text>
          </g>
          <g transform="translate(-232 -2078)">
            <text id="_59" data-name="*********" transform="translate(315 2437)" fill="#161340" font-size="37" font-family="Calibri"><tspan x="-82.925" y="0">*********</tspan></text>
          </g>
          <g transform="translate(-65 -2078)">
            <text id="_60" data-name="*********" transform="translate(315 2437)" fill="#161340" font-size="37" font-family="Calibri"><tspan x="-82.925" y="0">*********</tspan></text>
          </g>
          <g transform="translate(-232 -2051)">
            <text id="_61" data-name="*********" transform="translate(315 2437)" fill="#161340" font-size="37" font-family="Calibri"><tspan x="-82.925" y="0">*********</tspan></text>
          </g>
          <g transform="translate(-65 -2051)">
            <text id="_62" data-name="*********" transform="translate(315 2437)" fill="#161340" font-size="37" font-family="Calibri"><tspan x="-82.925" y="0">*********</tspan></text>
          </g>
          <g transform="translate(-232 -2024)">
            <text id="_63" data-name="*********" transform="translate(315 2437)" fill="#161340" font-size="37" font-family="Calibri"><tspan x="-82.925" y="0">*********</tspan></text>
          </g>
          <g transform="translate(-65 -2024)">
            <text id="_64" data-name="*********" transform="translate(315 2437)" fill="#161340" font-size="37" font-family="Calibri"><tspan x="-82.925" y="0">*********</tspan></text>
          </g>
          <g transform="translate(-232 -1997)">
            <text id="_65" data-name="*********" transform="translate(315 2437)" fill="#161340" font-size="37" font-family="Calibri"><tspan x="-82.925" y="0">*********</tspan></text>
          </g>
          <g transform="translate(-65 -1997)">
            <text id="_66" data-name="*********" transform="translate(315 2437)" fill="#161340" font-size="37" font-family="Calibri"><tspan x="-82.925" y="0">*********</tspan></text>
          </g>
          <g transform="translate(-232 -1970)">
            <text id="_67" data-name="*********" transform="translate(315 2437)" fill="#161340" font-size="37" font-family="Calibri"><tspan x="-82.925" y="0">*********</tspan></text>
          </g>
          <g transform="translate(-65 -1970)">
            <text id="_68" data-name="*********" transform="translate(315 2437)" fill="#161340" font-size="37" font-family="Calibri"><tspan x="-82.925" y="0">*********</tspan></text>
          </g>
          <g transform="translate(-232 -1943)">
            <text id="_69" data-name="*********" transform="translate(315 2437)" fill="#161340" font-size="37" font-family="Calibri"><tspan x="-82.925" y="0">*********</tspan></text>
          </g>
          <g transform="translate(-65 -1943)">
            <text id="_70" data-name="*********" transform="translate(315 2437)" fill="#161340" font-size="37" font-family="Calibri"><tspan x="-82.925" y="0">*********</tspan></text>
          </g>
          <g transform="translate(-232 -1916)">
            <text id="_71" data-name="*********" transform="translate(315 2437)" fill="#161340" font-size="37" font-family="Calibri"><tspan x="-82.925" y="0">*********</tspan></text>
          </g>
          <g transform="translate(-65 -1916)">
            <text id="_72" data-name="*********" transform="translate(315 2437)" fill="#161340" font-size="37" font-family="Calibri"><tspan x="-82.925" y="0">*********</tspan></text>
          </g>
          <g transform="translate(-232 -1889)">
            <text id="_73" data-name="*********" transform="translate(315 2437)" fill="#161340" font-size="37" font-family="Calibri"><tspan x="-82.925" y="0">*********</tspan></text>
          </g>
          <g transform="translate(-65 -1889)">
            <text id="_74" data-name="*********" transform="translate(315 2437)" fill="#161340" font-size="37" font-family="Calibri"><tspan x="-82.925" y="0">*********</tspan></text>
          </g>
        </g>
        <g id="Repeat_Grid_5" data-name="Repeat Grid 5" transform="translate(1699 751)" clip-path="url(#clip-path-4)">
          <g transform="translate(-232 -2402)">
            <text id="_75" data-name="*********" transform="translate(315 2437)" fill="#161340" font-size="37" font-family="Calibri"><tspan x="-82.925" y="0">*********</tspan></text>
          </g>
          <g transform="translate(-65 -2402)">
            <text id="_76" data-name="*********" transform="translate(315 2437)" fill="#161340" font-size="37" font-family="Calibri"><tspan x="-82.925" y="0">*********</tspan></text>
          </g>
          <g transform="translate(-232 -2375)">
            <text id="_77" data-name="*********" transform="translate(315 2437)" fill="#161340" font-size="37" font-family="Calibri"><tspan x="-82.925" y="0">*********</tspan></text>
          </g>
          <g transform="translate(-65 -2375)">
            <text id="_78" data-name="*********" transform="translate(315 2437)" fill="#161340" font-size="37" font-family="Calibri"><tspan x="-82.925" y="0">*********</tspan></text>
          </g>
          <g transform="translate(-232 -2348)">
            <text id="_79" data-name="*********" transform="translate(315 2437)" fill="#161340" font-size="37" font-family="Calibri"><tspan x="-82.925" y="0">*********</tspan></text>
          </g>
          <g transform="translate(-65 -2348)">
            <text id="_80" data-name="*********" transform="translate(315 2437)" fill="#161340" font-size="37" font-family="Calibri"><tspan x="-82.925" y="0">*********</tspan></text>
          </g>
          <g transform="translate(-232 -2321)">
            <text id="_81" data-name="*********" transform="translate(315 2437)" fill="#161340" font-size="37" font-family="Calibri"><tspan x="-82.925" y="0">*********</tspan></text>
          </g>
          <g transform="translate(-65 -2321)">
            <text id="_82" data-name="*********" transform="translate(315 2437)" fill="#161340" font-size="37" font-family="Calibri"><tspan x="-82.925" y="0">*********</tspan></text>
          </g>
          <g transform="translate(-232 -2294)">
            <text id="_83" data-name="*********" transform="translate(315 2437)" fill="#161340" font-size="37" font-family="Calibri"><tspan x="-82.925" y="0">*********</tspan></text>
          </g>
          <g transform="translate(-65 -2294)">
            <text id="_84" data-name="*********" transform="translate(315 2437)" fill="#161340" font-size="37" font-family="Calibri"><tspan x="-82.925" y="0">*********</tspan></text>
          </g>
          <g transform="translate(-232 -2267)">
            <text id="_85" data-name="*********" transform="translate(315 2437)" fill="#161340" font-size="37" font-family="Calibri"><tspan x="-82.925" y="0">*********</tspan></text>
          </g>
          <g transform="translate(-65 -2267)">
            <text id="_86" data-name="*********" transform="translate(315 2437)" fill="#161340" font-size="37" font-family="Calibri"><tspan x="-82.925" y="0">*********</tspan></text>
          </g>
          <g transform="translate(-232 -2240)">
            <text id="_87" data-name="*********" transform="translate(315 2437)" fill="#161340" font-size="37" font-family="Calibri"><tspan x="-82.925" y="0">*********</tspan></text>
          </g>
          <g transform="translate(-65 -2240)">
            <text id="_88" data-name="*********" transform="translate(315 2437)" fill="#161340" font-size="37" font-family="Calibri"><tspan x="-82.925" y="0">*********</tspan></text>
          </g>
          <g transform="translate(-232 -2213)">
            <text id="_89" data-name="*********" transform="translate(315 2437)" fill="#161340" font-size="37" font-family="Calibri"><tspan x="-82.925" y="0">*********</tspan></text>
          </g>
          <g transform="translate(-65 -2213)">
            <text id="_90" data-name="*********" transform="translate(315 2437)" fill="#161340" font-size="37" font-family="Calibri"><tspan x="-82.925" y="0">*********</tspan></text>
          </g>
          <g transform="translate(-232 -2186)">
            <text id="_91" data-name="*********" transform="translate(315 2437)" fill="#161340" font-size="37" font-family="Calibri"><tspan x="-82.925" y="0">*********</tspan></text>
          </g>
          <g transform="translate(-65 -2186)">
            <text id="_92" data-name="*********" transform="translate(315 2437)" fill="#161340" font-size="37" font-family="Calibri"><tspan x="-82.925" y="0">*********</tspan></text>
          </g>
          <g transform="translate(-232 -2159)">
            <text id="_93" data-name="*********" transform="translate(315 2437)" fill="#161340" font-size="37" font-family="Calibri"><tspan x="-82.925" y="0">*********</tspan></text>
          </g>
          <g transform="translate(-65 -2159)">
            <text id="_94" data-name="*********" transform="translate(315 2437)" fill="#161340" font-size="37" font-family="Calibri"><tspan x="-82.925" y="0">*********</tspan></text>
          </g>
          <g transform="translate(-232 -2132)">
            <text id="_95" data-name="*********" transform="translate(315 2437)" fill="#161340" font-size="37" font-family="Calibri"><tspan x="-82.925" y="0">*********</tspan></text>
          </g>
          <g transform="translate(-65 -2132)">
            <text id="_96" data-name="*********" transform="translate(315 2437)" fill="#161340" font-size="37" font-family="Calibri"><tspan x="-82.925" y="0">*********</tspan></text>
          </g>
        </g>
      </g>
    </g>
  </g>
</svg>
